<?xml version="1.0" encoding="utf-8" standalone="no"?>
<!DOCTYPE svg PUBLIC "-//W3C//DTD SVG 1.1//EN"
  "http://www.w3.org/Graphics/SVG/1.1/DTD/svg11.dtd">
<!-- Created with matplotlib (https://matplotlib.org/) -->
<svg height="345.6pt" version="1.1" viewBox="0 0 460.8 345.6" width="460.8pt" xmlns="http://www.w3.org/2000/svg" xmlns:xlink="http://www.w3.org/1999/xlink">
 <defs>
  <style type="text/css">
*{stroke-linecap:butt;stroke-linejoin:round;}
  </style>
 </defs>
 <g id="figure_1">
  <g id="patch_1">
   <path d="M 0 345.6 
L 460.8 345.6 
L 460.8 0 
L 0 0 
z
" style="fill:#ffffff;"/>
  </g>
  <g id="axes_1">
   <g id="patch_2">
    <path d="M 57.6 307.584 
L 162.635294 307.584 
L 162.635294 41.472 
L 57.6 41.472 
z
" style="fill:#eaeaf2;"/>
   </g>
   <g id="matplotlib.axis_1">
    <g id="xtick_1">
     <g id="line2d_1">
      <path clip-path="url(#p655ce9483c)" d="M 88.853209 307.584 
L 88.853209 41.472 
" style="fill:none;stroke:#ffffff;stroke-linecap:round;"/>
     </g>
     <g id="text_1">
      <!-- 0.50 -->
      <defs>
       <path d="M 4.15625 35.296875 
Q 4.15625 48 6.765625 55.734375 
Q 9.375 63.484375 14.515625 67.671875 
Q 19.671875 71.875 27.484375 71.875 
Q 33.25 71.875 37.59375 69.546875 
Q 41.9375 67.234375 44.765625 62.859375 
Q 47.609375 58.5 49.21875 52.21875 
Q 50.828125 45.953125 50.828125 35.296875 
Q 50.828125 22.703125 48.234375 14.96875 
Q 45.65625 7.234375 40.5 3 
Q 35.359375 -1.21875 27.484375 -1.21875 
Q 17.140625 -1.21875 11.234375 6.203125 
Q 4.15625 15.140625 4.15625 35.296875 
z
M 13.1875 35.296875 
Q 13.1875 17.671875 17.3125 11.828125 
Q 21.4375 6 27.484375 6 
Q 33.546875 6 37.671875 11.859375 
Q 41.796875 17.71875 41.796875 35.296875 
Q 41.796875 52.984375 37.671875 58.78125 
Q 33.546875 64.59375 27.390625 64.59375 
Q 21.34375 64.59375 17.71875 59.46875 
Q 13.1875 52.9375 13.1875 35.296875 
z
" id="ArialMT-48"/>
       <path d="M 9.078125 0 
L 9.078125 10.015625 
L 19.09375 10.015625 
L 19.09375 0 
z
" id="ArialMT-46"/>
       <path d="M 4.15625 18.75 
L 13.375 19.53125 
Q 14.40625 12.796875 18.140625 9.390625 
Q 21.875 6 27.15625 6 
Q 33.5 6 37.890625 10.78125 
Q 42.28125 15.578125 42.28125 23.484375 
Q 42.28125 31 38.0625 35.34375 
Q 33.84375 39.703125 27 39.703125 
Q 22.75 39.703125 19.328125 37.765625 
Q 15.921875 35.84375 13.96875 32.765625 
L 5.71875 33.84375 
L 12.640625 70.609375 
L 48.25 70.609375 
L 48.25 62.203125 
L 19.671875 62.203125 
L 15.828125 42.96875 
Q 22.265625 47.46875 29.34375 47.46875 
Q 38.71875 47.46875 45.15625 40.96875 
Q 51.609375 34.46875 51.609375 24.265625 
Q 51.609375 14.546875 45.953125 7.46875 
Q 39.0625 -1.21875 27.15625 -1.21875 
Q 17.390625 -1.21875 11.203125 4.25 
Q 5.03125 9.71875 4.15625 18.75 
z
" id="ArialMT-53"/>
      </defs>
      <g style="fill:#262626;" transform="translate(78.149693 324.957594)scale(0.11 -0.11)">
       <use xlink:href="#ArialMT-48"/>
       <use x="55.615234" xlink:href="#ArialMT-46"/>
       <use x="83.398438" xlink:href="#ArialMT-53"/>
       <use x="139.013672" xlink:href="#ArialMT-48"/>
      </g>
     </g>
    </g>
    <g id="xtick_2">
     <g id="line2d_2">
      <path clip-path="url(#p655ce9483c)" d="M 126.173217 307.584 
L 126.173217 41.472 
" style="fill:none;stroke:#ffffff;stroke-linecap:round;"/>
     </g>
     <g id="text_2">
      <!-- 0.75 -->
      <defs>
       <path d="M 4.734375 62.203125 
L 4.734375 70.65625 
L 51.078125 70.65625 
L 51.078125 63.8125 
Q 44.234375 56.546875 37.515625 44.484375 
Q 30.8125 32.421875 27.15625 19.671875 
Q 24.515625 10.6875 23.78125 0 
L 14.75 0 
Q 14.890625 8.453125 18.0625 20.40625 
Q 21.234375 32.375 27.171875 43.484375 
Q 33.109375 54.59375 39.796875 62.203125 
z
" id="ArialMT-55"/>
      </defs>
      <g style="fill:#262626;" transform="translate(115.469701 324.957594)scale(0.11 -0.11)">
       <use xlink:href="#ArialMT-48"/>
       <use x="55.615234" xlink:href="#ArialMT-46"/>
       <use x="83.398438" xlink:href="#ArialMT-55"/>
       <use x="139.013672" xlink:href="#ArialMT-53"/>
      </g>
     </g>
    </g>
    <g id="text_3">
     <!-- Low Income -->
     <defs>
      <path d="M 7.328125 0 
L 7.328125 71.578125 
L 16.796875 71.578125 
L 16.796875 8.453125 
L 52.046875 8.453125 
L 52.046875 0 
z
" id="ArialMT-76"/>
      <path d="M 3.328125 25.921875 
Q 3.328125 40.328125 11.328125 47.265625 
Q 18.015625 53.03125 27.640625 53.03125 
Q 38.328125 53.03125 45.109375 46.015625 
Q 51.90625 39.015625 51.90625 26.65625 
Q 51.90625 16.65625 48.90625 10.90625 
Q 45.90625 5.171875 40.15625 2 
Q 34.421875 -1.171875 27.640625 -1.171875 
Q 16.75 -1.171875 10.03125 5.8125 
Q 3.328125 12.796875 3.328125 25.921875 
z
M 12.359375 25.921875 
Q 12.359375 15.96875 16.703125 11.015625 
Q 21.046875 6.0625 27.640625 6.0625 
Q 34.1875 6.0625 38.53125 11.03125 
Q 42.875 16.015625 42.875 26.21875 
Q 42.875 35.84375 38.5 40.796875 
Q 34.125 45.75 27.640625 45.75 
Q 21.046875 45.75 16.703125 40.8125 
Q 12.359375 35.890625 12.359375 25.921875 
z
" id="ArialMT-111"/>
      <path d="M 16.15625 0 
L 0.296875 51.859375 
L 9.375 51.859375 
L 17.625 21.921875 
L 20.703125 10.796875 
Q 20.90625 11.625 23.390625 21.484375 
L 31.640625 51.859375 
L 40.671875 51.859375 
L 48.4375 21.78125 
L 51.03125 11.859375 
L 54 21.875 
L 62.890625 51.859375 
L 71.4375 51.859375 
L 55.21875 0 
L 46.09375 0 
L 37.84375 31.0625 
L 35.84375 39.890625 
L 25.34375 0 
z
" id="ArialMT-119"/>
      <path id="ArialMT-32"/>
      <path d="M 9.328125 0 
L 9.328125 71.578125 
L 18.796875 71.578125 
L 18.796875 0 
z
" id="ArialMT-73"/>
      <path d="M 6.59375 0 
L 6.59375 51.859375 
L 14.5 51.859375 
L 14.5 44.484375 
Q 20.21875 53.03125 31 53.03125 
Q 35.6875 53.03125 39.625 51.34375 
Q 43.5625 49.65625 45.515625 46.921875 
Q 47.46875 44.1875 48.25 40.4375 
Q 48.734375 37.984375 48.734375 31.890625 
L 48.734375 0 
L 39.9375 0 
L 39.9375 31.546875 
Q 39.9375 36.921875 38.90625 39.578125 
Q 37.890625 42.234375 35.28125 43.8125 
Q 32.671875 45.40625 29.15625 45.40625 
Q 23.53125 45.40625 19.453125 41.84375 
Q 15.375 38.28125 15.375 28.328125 
L 15.375 0 
z
" id="ArialMT-110"/>
      <path d="M 40.4375 19 
L 49.078125 17.875 
Q 47.65625 8.9375 41.8125 3.875 
Q 35.984375 -1.171875 27.484375 -1.171875 
Q 16.84375 -1.171875 10.375 5.78125 
Q 3.90625 12.75 3.90625 25.734375 
Q 3.90625 34.125 6.6875 40.421875 
Q 9.46875 46.734375 15.15625 49.875 
Q 20.84375 53.03125 27.546875 53.03125 
Q 35.984375 53.03125 41.359375 48.75 
Q 46.734375 44.484375 48.25 36.625 
L 39.703125 35.296875 
Q 38.484375 40.53125 35.375 43.15625 
Q 32.28125 45.796875 27.875 45.796875 
Q 21.234375 45.796875 17.078125 41.03125 
Q 12.9375 36.28125 12.9375 25.984375 
Q 12.9375 15.53125 16.9375 10.796875 
Q 20.953125 6.0625 27.390625 6.0625 
Q 32.5625 6.0625 36.03125 9.234375 
Q 39.5 12.40625 40.4375 19 
z
" id="ArialMT-99"/>
      <path d="M 6.59375 0 
L 6.59375 51.859375 
L 14.453125 51.859375 
L 14.453125 44.578125 
Q 16.890625 48.390625 20.9375 50.703125 
Q 25 53.03125 30.171875 53.03125 
Q 35.9375 53.03125 39.625 50.640625 
Q 43.3125 48.25 44.828125 43.953125 
Q 50.984375 53.03125 60.84375 53.03125 
Q 68.5625 53.03125 72.703125 48.75 
Q 76.859375 44.484375 76.859375 35.59375 
L 76.859375 0 
L 68.109375 0 
L 68.109375 32.671875 
Q 68.109375 37.9375 67.25 40.25 
Q 66.40625 42.578125 64.15625 43.984375 
Q 61.921875 45.40625 58.890625 45.40625 
Q 53.421875 45.40625 49.796875 41.765625 
Q 46.1875 38.140625 46.1875 30.125 
L 46.1875 0 
L 37.40625 0 
L 37.40625 33.6875 
Q 37.40625 39.546875 35.25 42.46875 
Q 33.109375 45.40625 28.21875 45.40625 
Q 24.515625 45.40625 21.359375 43.453125 
Q 18.21875 41.5 16.796875 37.734375 
Q 15.375 33.984375 15.375 26.90625 
L 15.375 0 
z
" id="ArialMT-109"/>
      <path d="M 42.09375 16.703125 
L 51.171875 15.578125 
Q 49.03125 7.625 43.21875 3.21875 
Q 37.40625 -1.171875 28.375 -1.171875 
Q 17 -1.171875 10.328125 5.828125 
Q 3.65625 12.84375 3.65625 25.484375 
Q 3.65625 38.578125 10.390625 45.796875 
Q 17.140625 53.03125 27.875 53.03125 
Q 38.28125 53.03125 44.875 45.953125 
Q 51.46875 38.875 51.46875 26.03125 
Q 51.46875 25.25 51.421875 23.6875 
L 12.75 23.6875 
Q 13.234375 15.140625 17.578125 10.59375 
Q 21.921875 6.0625 28.421875 6.0625 
Q 33.25 6.0625 36.671875 8.59375 
Q 40.09375 11.140625 42.09375 16.703125 
z
M 13.234375 30.90625 
L 42.1875 30.90625 
Q 41.609375 37.453125 38.875 40.71875 
Q 34.671875 45.796875 27.984375 45.796875 
Q 21.921875 45.796875 17.796875 41.75 
Q 13.671875 37.703125 13.234375 30.90625 
z
" id="ArialMT-101"/>
     </defs>
     <g style="fill:#262626;" transform="translate(77.770147 339.733219)scale(0.12 -0.12)">
      <use xlink:href="#ArialMT-76"/>
      <use x="55.615234" xlink:href="#ArialMT-111"/>
      <use x="111.230469" xlink:href="#ArialMT-119"/>
      <use x="183.447266" xlink:href="#ArialMT-32"/>
      <use x="211.230469" xlink:href="#ArialMT-73"/>
      <use x="239.013672" xlink:href="#ArialMT-110"/>
      <use x="294.628906" xlink:href="#ArialMT-99"/>
      <use x="344.628906" xlink:href="#ArialMT-111"/>
      <use x="400.244141" xlink:href="#ArialMT-109"/>
      <use x="483.544922" xlink:href="#ArialMT-101"/>
     </g>
    </g>
   </g>
   <g id="matplotlib.axis_2">
    <g id="ytick_1">
     <g id="line2d_3">
      <path clip-path="url(#p655ce9483c)" d="M 57.6 307.584 
L 162.635294 307.584 
" style="fill:none;stroke:#ffffff;stroke-linecap:round;"/>
     </g>
     <g id="text_4">
      <!-- 0 -->
      <g style="fill:#262626;" transform="translate(41.982969 311.520797)scale(0.11 -0.11)">
       <use xlink:href="#ArialMT-48"/>
      </g>
     </g>
    </g>
    <g id="ytick_2">
     <g id="line2d_4">
      <path clip-path="url(#p655ce9483c)" d="M 57.6 254.3616 
L 162.635294 254.3616 
" style="fill:none;stroke:#ffffff;stroke-linecap:round;"/>
     </g>
     <g id="text_5">
      <!-- 1 -->
      <defs>
       <path d="M 37.25 0 
L 28.46875 0 
L 28.46875 56 
Q 25.296875 52.984375 20.140625 49.953125 
Q 14.984375 46.921875 10.890625 45.40625 
L 10.890625 53.90625 
Q 18.265625 57.375 23.78125 62.296875 
Q 29.296875 67.234375 31.59375 71.875 
L 37.25 71.875 
z
" id="ArialMT-49"/>
      </defs>
      <g style="fill:#262626;" transform="translate(41.982969 258.298397)scale(0.11 -0.11)">
       <use xlink:href="#ArialMT-49"/>
      </g>
     </g>
    </g>
    <g id="ytick_3">
     <g id="line2d_5">
      <path clip-path="url(#p655ce9483c)" d="M 57.6 201.1392 
L 162.635294 201.1392 
" style="fill:none;stroke:#ffffff;stroke-linecap:round;"/>
     </g>
     <g id="text_6">
      <!-- 2 -->
      <defs>
       <path d="M 50.34375 8.453125 
L 50.34375 0 
L 3.03125 0 
Q 2.9375 3.171875 4.046875 6.109375 
Q 5.859375 10.9375 9.828125 15.625 
Q 13.8125 20.3125 21.34375 26.46875 
Q 33.015625 36.03125 37.109375 41.625 
Q 41.21875 47.21875 41.21875 52.203125 
Q 41.21875 57.421875 37.46875 61 
Q 33.734375 64.59375 27.734375 64.59375 
Q 21.390625 64.59375 17.578125 60.78125 
Q 13.765625 56.984375 13.71875 50.25 
L 4.6875 51.171875 
Q 5.609375 61.28125 11.65625 66.578125 
Q 17.71875 71.875 27.9375 71.875 
Q 38.234375 71.875 44.234375 66.15625 
Q 50.25 60.453125 50.25 52 
Q 50.25 47.703125 48.484375 43.546875 
Q 46.734375 39.40625 42.65625 34.8125 
Q 38.578125 30.21875 29.109375 22.21875 
Q 21.1875 15.578125 18.9375 13.203125 
Q 16.703125 10.84375 15.234375 8.453125 
z
" id="ArialMT-50"/>
      </defs>
      <g style="fill:#262626;" transform="translate(41.982969 205.075997)scale(0.11 -0.11)">
       <use xlink:href="#ArialMT-50"/>
      </g>
     </g>
    </g>
    <g id="ytick_4">
     <g id="line2d_6">
      <path clip-path="url(#p655ce9483c)" d="M 57.6 147.9168 
L 162.635294 147.9168 
" style="fill:none;stroke:#ffffff;stroke-linecap:round;"/>
     </g>
     <g id="text_7">
      <!-- 3 -->
      <defs>
       <path d="M 4.203125 18.890625 
L 12.984375 20.0625 
Q 14.5 12.59375 18.140625 9.296875 
Q 21.78125 6 27 6 
Q 33.203125 6 37.46875 10.296875 
Q 41.75 14.59375 41.75 20.953125 
Q 41.75 27 37.796875 30.921875 
Q 33.84375 34.859375 27.734375 34.859375 
Q 25.25 34.859375 21.53125 33.890625 
L 22.515625 41.609375 
Q 23.390625 41.5 23.921875 41.5 
Q 29.546875 41.5 34.03125 44.421875 
Q 38.53125 47.359375 38.53125 53.46875 
Q 38.53125 58.296875 35.25 61.46875 
Q 31.984375 64.65625 26.8125 64.65625 
Q 21.6875 64.65625 18.265625 61.421875 
Q 14.84375 58.203125 13.875 51.765625 
L 5.078125 53.328125 
Q 6.6875 62.15625 12.390625 67.015625 
Q 18.109375 71.875 26.609375 71.875 
Q 32.46875 71.875 37.390625 69.359375 
Q 42.328125 66.84375 44.9375 62.5 
Q 47.5625 58.15625 47.5625 53.265625 
Q 47.5625 48.640625 45.0625 44.828125 
Q 42.578125 41.015625 37.703125 38.765625 
Q 44.046875 37.3125 47.5625 32.6875 
Q 51.078125 28.078125 51.078125 21.140625 
Q 51.078125 11.765625 44.234375 5.25 
Q 37.40625 -1.265625 26.953125 -1.265625 
Q 17.53125 -1.265625 11.296875 4.34375 
Q 5.078125 9.96875 4.203125 18.890625 
z
" id="ArialMT-51"/>
      </defs>
      <g style="fill:#262626;" transform="translate(41.982969 151.853597)scale(0.11 -0.11)">
       <use xlink:href="#ArialMT-51"/>
      </g>
     </g>
    </g>
    <g id="ytick_5">
     <g id="line2d_7">
      <path clip-path="url(#p655ce9483c)" d="M 57.6 94.6944 
L 162.635294 94.6944 
" style="fill:none;stroke:#ffffff;stroke-linecap:round;"/>
     </g>
     <g id="text_8">
      <!-- 4 -->
      <defs>
       <path d="M 32.328125 0 
L 32.328125 17.140625 
L 1.265625 17.140625 
L 1.265625 25.203125 
L 33.9375 71.578125 
L 41.109375 71.578125 
L 41.109375 25.203125 
L 50.78125 25.203125 
L 50.78125 17.140625 
L 41.109375 17.140625 
L 41.109375 0 
z
M 32.328125 25.203125 
L 32.328125 57.46875 
L 9.90625 25.203125 
z
" id="ArialMT-52"/>
      </defs>
      <g style="fill:#262626;" transform="translate(41.982969 98.631197)scale(0.11 -0.11)">
       <use xlink:href="#ArialMT-52"/>
      </g>
     </g>
    </g>
    <g id="ytick_6">
     <g id="line2d_8">
      <path clip-path="url(#p655ce9483c)" d="M 57.6 41.472 
L 162.635294 41.472 
" style="fill:none;stroke:#ffffff;stroke-linecap:round;"/>
     </g>
     <g id="text_9">
      <!-- 5 -->
      <g style="fill:#262626;" transform="translate(41.982969 45.408797)scale(0.11 -0.11)">
       <use xlink:href="#ArialMT-53"/>
      </g>
     </g>
    </g>
    <g id="text_10">
     <!-- SQRP Points -->
     <defs>
      <path d="M 4.5 23 
L 13.421875 23.78125 
Q 14.0625 18.40625 16.375 14.96875 
Q 18.703125 11.53125 23.578125 9.40625 
Q 28.46875 7.28125 34.578125 7.28125 
Q 39.984375 7.28125 44.140625 8.890625 
Q 48.296875 10.5 50.3125 13.296875 
Q 52.34375 16.109375 52.34375 19.4375 
Q 52.34375 22.796875 50.390625 25.3125 
Q 48.4375 27.828125 43.953125 29.546875 
Q 41.0625 30.671875 31.203125 33.03125 
Q 21.34375 35.40625 17.390625 37.5 
Q 12.25 40.1875 9.734375 44.15625 
Q 7.234375 48.140625 7.234375 53.078125 
Q 7.234375 58.5 10.296875 63.203125 
Q 13.375 67.921875 19.28125 70.359375 
Q 25.203125 72.796875 32.421875 72.796875 
Q 40.375 72.796875 46.453125 70.234375 
Q 52.546875 67.671875 55.8125 62.6875 
Q 59.078125 57.71875 59.328125 51.421875 
L 50.25 50.734375 
Q 49.515625 57.515625 45.28125 60.984375 
Q 41.0625 64.453125 32.8125 64.453125 
Q 24.21875 64.453125 20.28125 61.296875 
Q 16.359375 58.15625 16.359375 53.71875 
Q 16.359375 49.859375 19.140625 47.359375 
Q 21.875 44.875 33.421875 42.265625 
Q 44.96875 39.65625 49.265625 37.703125 
Q 55.515625 34.8125 58.484375 30.390625 
Q 61.46875 25.984375 61.46875 20.21875 
Q 61.46875 14.5 58.203125 9.4375 
Q 54.9375 4.390625 48.796875 1.578125 
Q 42.671875 -1.21875 35.015625 -1.21875 
Q 25.296875 -1.21875 18.71875 1.609375 
Q 12.15625 4.4375 8.421875 10.125 
Q 4.6875 15.828125 4.5 23 
z
" id="ArialMT-83"/>
      <path d="M 61.96875 7.671875 
Q 68.5625 3.125 74.125 1.03125 
L 71.34375 -5.5625 
Q 63.625 -2.78125 55.953125 3.21875 
Q 48 -1.21875 38.375 -1.21875 
Q 28.65625 -1.21875 20.75 3.46875 
Q 12.84375 8.15625 8.5625 16.640625 
Q 4.296875 25.140625 4.296875 35.796875 
Q 4.296875 46.390625 8.59375 55.078125 
Q 12.890625 63.765625 20.828125 68.3125 
Q 28.765625 72.859375 38.578125 72.859375 
Q 48.484375 72.859375 56.4375 68.140625 
Q 64.40625 63.421875 68.578125 54.953125 
Q 72.75 46.484375 72.75 35.84375 
Q 72.75 27 70.0625 19.9375 
Q 67.390625 12.890625 61.96875 7.671875 
z
M 41.109375 19.78125 
Q 49.3125 17.484375 54.640625 12.9375 
Q 62.984375 20.5625 62.984375 35.84375 
Q 62.984375 44.53125 60.03125 51.015625 
Q 57.078125 57.515625 51.390625 61.109375 
Q 45.703125 64.703125 38.625 64.703125 
Q 28.03125 64.703125 21.046875 57.453125 
Q 14.0625 50.203125 14.0625 35.796875 
Q 14.0625 21.828125 20.96875 14.359375 
Q 27.875 6.890625 38.625 6.890625 
Q 43.703125 6.890625 48.1875 8.796875 
Q 43.75 11.671875 38.8125 12.890625 
z
" id="ArialMT-81"/>
      <path d="M 7.859375 0 
L 7.859375 71.578125 
L 39.59375 71.578125 
Q 49.171875 71.578125 54.140625 69.640625 
Q 59.125 67.71875 62.109375 62.828125 
Q 65.09375 57.953125 65.09375 52.046875 
Q 65.09375 44.4375 60.15625 39.203125 
Q 55.21875 33.984375 44.921875 32.5625 
Q 48.6875 30.765625 50.640625 29 
Q 54.78125 25.203125 58.5 19.484375 
L 70.953125 0 
L 59.03125 0 
L 49.5625 14.890625 
Q 45.40625 21.34375 42.71875 24.75 
Q 40.046875 28.171875 37.921875 29.53125 
Q 35.796875 30.90625 33.59375 31.453125 
Q 31.984375 31.78125 28.328125 31.78125 
L 17.328125 31.78125 
L 17.328125 0 
z
M 17.328125 39.984375 
L 37.703125 39.984375 
Q 44.1875 39.984375 47.84375 41.328125 
Q 51.515625 42.671875 53.421875 45.625 
Q 55.328125 48.578125 55.328125 52.046875 
Q 55.328125 57.125 51.640625 60.390625 
Q 47.953125 63.671875 39.984375 63.671875 
L 17.328125 63.671875 
z
" id="ArialMT-82"/>
      <path d="M 7.71875 0 
L 7.71875 71.578125 
L 34.71875 71.578125 
Q 41.84375 71.578125 45.609375 70.90625 
Q 50.875 70.015625 54.4375 67.546875 
Q 58.015625 65.09375 60.1875 60.640625 
Q 62.359375 56.203125 62.359375 50.875 
Q 62.359375 41.75 56.546875 35.421875 
Q 50.734375 29.109375 35.546875 29.109375 
L 17.1875 29.109375 
L 17.1875 0 
z
M 17.1875 37.546875 
L 35.6875 37.546875 
Q 44.875 37.546875 48.734375 40.96875 
Q 52.59375 44.390625 52.59375 50.59375 
Q 52.59375 55.078125 50.3125 58.265625 
Q 48.046875 61.46875 44.34375 62.5 
Q 41.9375 63.140625 35.5 63.140625 
L 17.1875 63.140625 
z
" id="ArialMT-80"/>
      <path d="M 6.640625 61.46875 
L 6.640625 71.578125 
L 15.4375 71.578125 
L 15.4375 61.46875 
z
M 6.640625 0 
L 6.640625 51.859375 
L 15.4375 51.859375 
L 15.4375 0 
z
" id="ArialMT-105"/>
      <path d="M 25.78125 7.859375 
L 27.046875 0.09375 
Q 23.34375 -0.6875 20.40625 -0.6875 
Q 15.625 -0.6875 12.984375 0.828125 
Q 10.359375 2.34375 9.28125 4.8125 
Q 8.203125 7.28125 8.203125 15.1875 
L 8.203125 45.015625 
L 1.765625 45.015625 
L 1.765625 51.859375 
L 8.203125 51.859375 
L 8.203125 64.703125 
L 16.9375 69.96875 
L 16.9375 51.859375 
L 25.78125 51.859375 
L 25.78125 45.015625 
L 16.9375 45.015625 
L 16.9375 14.703125 
Q 16.9375 10.9375 17.40625 9.859375 
Q 17.875 8.796875 18.921875 8.15625 
Q 19.96875 7.515625 21.921875 7.515625 
Q 23.390625 7.515625 25.78125 7.859375 
z
" id="ArialMT-116"/>
      <path d="M 3.078125 15.484375 
L 11.765625 16.84375 
Q 12.5 11.625 15.84375 8.84375 
Q 19.1875 6.0625 25.203125 6.0625 
Q 31.25 6.0625 34.171875 8.515625 
Q 37.109375 10.984375 37.109375 14.3125 
Q 37.109375 17.28125 34.515625 19 
Q 32.71875 20.171875 25.53125 21.96875 
Q 15.875 24.421875 12.140625 26.203125 
Q 8.40625 27.984375 6.46875 31.125 
Q 4.546875 34.28125 4.546875 38.09375 
Q 4.546875 41.546875 6.125 44.5 
Q 7.71875 47.46875 10.453125 49.421875 
Q 12.5 50.921875 16.03125 51.96875 
Q 19.578125 53.03125 23.640625 53.03125 
Q 29.734375 53.03125 34.34375 51.265625 
Q 38.96875 49.515625 41.15625 46.5 
Q 43.359375 43.5 44.1875 38.484375 
L 35.59375 37.3125 
Q 35.015625 41.3125 32.203125 43.546875 
Q 29.390625 45.796875 24.265625 45.796875 
Q 18.21875 45.796875 15.625 43.796875 
Q 13.03125 41.796875 13.03125 39.109375 
Q 13.03125 37.40625 14.109375 36.03125 
Q 15.1875 34.625 17.484375 33.6875 
Q 18.796875 33.203125 25.25 31.453125 
Q 34.578125 28.953125 38.25 27.359375 
Q 41.9375 25.78125 44.03125 22.75 
Q 46.140625 19.734375 46.140625 15.234375 
Q 46.140625 10.84375 43.578125 6.953125 
Q 41.015625 3.078125 36.171875 0.953125 
Q 31.34375 -1.171875 25.25 -1.171875 
Q 15.140625 -1.171875 9.84375 3.03125 
Q 4.546875 7.234375 3.078125 15.484375 
z
" id="ArialMT-115"/>
     </defs>
     <g style="fill:#262626;" transform="translate(35.597969 209.769563)rotate(-90)scale(0.12 -0.12)">
      <use xlink:href="#ArialMT-83"/>
      <use x="66.699219" xlink:href="#ArialMT-81"/>
      <use x="144.482422" xlink:href="#ArialMT-82"/>
      <use x="216.699219" xlink:href="#ArialMT-80"/>
      <use x="281.648438" xlink:href="#ArialMT-32"/>
      <use x="309.431641" xlink:href="#ArialMT-80"/>
      <use x="376.130859" xlink:href="#ArialMT-111"/>
      <use x="431.746094" xlink:href="#ArialMT-105"/>
      <use x="453.962891" xlink:href="#ArialMT-110"/>
      <use x="509.578125" xlink:href="#ArialMT-116"/>
      <use x="537.361328" xlink:href="#ArialMT-115"/>
     </g>
    </g>
   </g>
   <g id="PathCollection_1">
    <defs>
     <path d="M 0 3 
C 0.795609 3 1.55874 2.683901 2.12132 2.12132 
C 2.683901 1.55874 3 0.795609 3 0 
C 3 -0.795609 2.683901 -1.55874 2.12132 -2.12132 
C 1.55874 -2.683901 0.795609 -3 0 -3 
C -0.795609 -3 -1.55874 -2.683901 -2.12132 -2.12132 
C -2.683901 -1.55874 -3 -0.795609 -3 0 
C -3 0.795609 -2.683901 1.55874 -2.12132 2.12132 
C -1.55874 2.683901 -0.795609 3 0 3 
z
" id="ma778d2c153" style="stroke:#00956e;stroke-opacity:0.8;"/>
    </defs>
    <g clip-path="url(#p655ce9483c)">
     <use style="fill:#00956e;fill-opacity:0.8;stroke:#00956e;stroke-opacity:0.8;" x="148.726316" xlink:href="#ma778d2c153" y="94.6944"/>
     <use style="fill:#00956e;fill-opacity:0.8;stroke:#00956e;stroke-opacity:0.8;" x="148.493796" xlink:href="#ma778d2c153" y="201.1392"/>
     <use style="fill:#00956e;fill-opacity:0.8;stroke:#00956e;stroke-opacity:0.8;" x="148.348125" xlink:href="#ma778d2c153" y="217.10592"/>
     <use style="fill:#00956e;fill-opacity:0.8;stroke:#00956e;stroke-opacity:0.8;" x="151.987452" xlink:href="#ma778d2c153" y="147.9168"/>
     <use style="fill:#00956e;fill-opacity:0.8;stroke:#00956e;stroke-opacity:0.8;" x="151.445034" xlink:href="#ma778d2c153" y="94.6944"/>
     <use style="fill:#00956e;fill-opacity:0.8;stroke:#00956e;stroke-opacity:0.8;" x="148.922067" xlink:href="#ma778d2c153" y="41.472"/>
     <use style="fill:#00956e;fill-opacity:0.8;stroke:#00956e;stroke-opacity:0.8;" x="156.468283" xlink:href="#ma778d2c153" y="201.1392"/>
     <use style="fill:#00956e;fill-opacity:0.8;stroke:#00956e;stroke-opacity:0.8;" x="117.531197" xlink:href="#ma778d2c153" y="174.528"/>
     <use style="fill:#00956e;fill-opacity:0.8;stroke:#00956e;stroke-opacity:0.8;" x="150.131741" xlink:href="#ma778d2c153" y="201.1392"/>
     <use style="fill:#00956e;fill-opacity:0.8;stroke:#00956e;stroke-opacity:0.8;" x="152.070743" xlink:href="#ma778d2c153" y="254.3616"/>
     <use style="fill:#00956e;fill-opacity:0.8;stroke:#00956e;stroke-opacity:0.8;" x="153.6144" xlink:href="#ma778d2c153" y="254.3616"/>
     <use style="fill:#00956e;fill-opacity:0.8;stroke:#00956e;stroke-opacity:0.8;" x="158.63859" xlink:href="#ma778d2c153" y="254.3616"/>
     <use style="fill:#00956e;fill-opacity:0.8;stroke:#00956e;stroke-opacity:0.8;" x="152.147053" xlink:href="#ma778d2c153" y="217.10592"/>
     <use style="fill:#00956e;fill-opacity:0.8;stroke:#00956e;stroke-opacity:0.8;" x="156.057821" xlink:href="#ma778d2c153" y="254.3616"/>
     <use style="fill:#00956e;fill-opacity:0.8;stroke:#00956e;stroke-opacity:0.8;" x="128.320714" xlink:href="#ma778d2c153" y="201.1392"/>
     <use style="fill:#00956e;fill-opacity:0.8;stroke:#00956e;stroke-opacity:0.8;" x="157.926851" xlink:href="#ma778d2c153" y="254.3616"/>
     <use style="fill:#00956e;fill-opacity:0.8;stroke:#00956e;stroke-opacity:0.8;" x="138.501249" xlink:href="#ma778d2c153" y="201.1392"/>
     <use style="fill:#00956e;fill-opacity:0.8;stroke:#00956e;stroke-opacity:0.8;" x="153.738292" xlink:href="#ma778d2c153" y="174.528"/>
     <use style="fill:#00956e;fill-opacity:0.8;stroke:#00956e;stroke-opacity:0.8;" x="153.369637" xlink:href="#ma778d2c153" y="201.1392"/>
     <use style="fill:#00956e;fill-opacity:0.8;stroke:#00956e;stroke-opacity:0.8;" x="84.350246" xlink:href="#ma778d2c153" y="147.9168"/>
     <use style="fill:#00956e;fill-opacity:0.8;stroke:#00956e;stroke-opacity:0.8;" x="161.603605" xlink:href="#ma778d2c153" y="254.3616"/>
     <use style="fill:#00956e;fill-opacity:0.8;stroke:#00956e;stroke-opacity:0.8;" x="157.877676" xlink:href="#ma778d2c153" y="94.6944"/>
     <use style="fill:#00956e;fill-opacity:0.8;stroke:#00956e;stroke-opacity:0.8;" x="158.149071" xlink:href="#ma778d2c153" y="147.9168"/>
     <use style="fill:#00956e;fill-opacity:0.8;stroke:#00956e;stroke-opacity:0.8;" x="74.665437" xlink:href="#ma778d2c153" y="68.0832"/>
     <use style="fill:#00956e;fill-opacity:0.8;stroke:#00956e;stroke-opacity:0.8;" x="117.29269" xlink:href="#ma778d2c153" y="94.6944"/>
     <use style="fill:#00956e;fill-opacity:0.8;stroke:#00956e;stroke-opacity:0.8;" x="128.709528" xlink:href="#ma778d2c153" y="121.3056"/>
     <use style="fill:#00956e;fill-opacity:0.8;stroke:#00956e;stroke-opacity:0.8;" x="158.07005" xlink:href="#ma778d2c153" y="254.3616"/>
     <use style="fill:#00956e;fill-opacity:0.8;stroke:#00956e;stroke-opacity:0.8;" x="153.974357" xlink:href="#ma778d2c153" y="147.9168"/>
     <use style="fill:#00956e;fill-opacity:0.8;stroke:#00956e;stroke-opacity:0.8;" x="132.616724" xlink:href="#ma778d2c153" y="41.472"/>
     <use style="fill:#00956e;fill-opacity:0.8;stroke:#00956e;stroke-opacity:0.8;" x="153.541223" xlink:href="#ma778d2c153" y="201.1392"/>
     <use style="fill:#00956e;fill-opacity:0.8;stroke:#00956e;stroke-opacity:0.8;" x="153.964713" xlink:href="#ma778d2c153" y="147.9168"/>
     <use style="fill:#00956e;fill-opacity:0.8;stroke:#00956e;stroke-opacity:0.8;" x="148.142082" xlink:href="#ma778d2c153" y="201.1392"/>
     <use style="fill:#00956e;fill-opacity:0.8;stroke:#00956e;stroke-opacity:0.8;" x="145.056249" xlink:href="#ma778d2c153" y="254.3616"/>
     <use style="fill:#00956e;fill-opacity:0.8;stroke:#00956e;stroke-opacity:0.8;" x="155.019901" xlink:href="#ma778d2c153" y="201.1392"/>
     <use style="fill:#00956e;fill-opacity:0.8;stroke:#00956e;stroke-opacity:0.8;" x="90.860542" xlink:href="#ma778d2c153" y="174.528"/>
     <use style="fill:#00956e;fill-opacity:0.8;stroke:#00956e;stroke-opacity:0.8;" x="162.425032" xlink:href="#ma778d2c153" y="147.9168"/>
     <use style="fill:#00956e;fill-opacity:0.8;stroke:#00956e;stroke-opacity:0.8;" x="139.21585" xlink:href="#ma778d2c153" y="201.1392"/>
     <use style="fill:#00956e;fill-opacity:0.8;stroke:#00956e;stroke-opacity:0.8;" x="156.029224" xlink:href="#ma778d2c153" y="147.9168"/>
     <use style="fill:#00956e;fill-opacity:0.8;stroke:#00956e;stroke-opacity:0.8;" x="153.755681" xlink:href="#ma778d2c153" y="201.1392"/>
     <use style="fill:#00956e;fill-opacity:0.8;stroke:#00956e;stroke-opacity:0.8;" x="142.040986" xlink:href="#ma778d2c153" y="201.1392"/>
     <use style="fill:#00956e;fill-opacity:0.8;stroke:#00956e;stroke-opacity:0.8;" x="149.849963" xlink:href="#ma778d2c153" y="254.3616"/>
     <use style="fill:#00956e;fill-opacity:0.8;stroke:#00956e;stroke-opacity:0.8;" x="157.20775" xlink:href="#ma778d2c153" y="41.472"/>
     <use style="fill:#00956e;fill-opacity:0.8;stroke:#00956e;stroke-opacity:0.8;" x="154.662576" xlink:href="#ma778d2c153" y="41.472"/>
     <use style="fill:#00956e;fill-opacity:0.8;stroke:#00956e;stroke-opacity:0.8;" x="77.972538" xlink:href="#ma778d2c153" y="94.6944"/>
     <use style="fill:#00956e;fill-opacity:0.8;stroke:#00956e;stroke-opacity:0.8;" x="107.34808" xlink:href="#ma778d2c153" y="121.3056"/>
     <use style="fill:#00956e;fill-opacity:0.8;stroke:#00956e;stroke-opacity:0.8;" x="138.458686" xlink:href="#ma778d2c153" y="201.1392"/>
     <use style="fill:#00956e;fill-opacity:0.8;stroke:#00956e;stroke-opacity:0.8;" x="156.255406" xlink:href="#ma778d2c153" y="201.1392"/>
     <use style="fill:#00956e;fill-opacity:0.8;stroke:#00956e;stroke-opacity:0.8;" x="133.133695" xlink:href="#ma778d2c153" y="94.6944"/>
     <use style="fill:#00956e;fill-opacity:0.8;stroke:#00956e;stroke-opacity:0.8;" x="142.078834" xlink:href="#ma778d2c153" y="147.9168"/>
     <use style="fill:#00956e;fill-opacity:0.8;stroke:#00956e;stroke-opacity:0.8;" x="67.69273" xlink:href="#ma778d2c153" y="94.6944"/>
     <use style="fill:#00956e;fill-opacity:0.8;stroke:#00956e;stroke-opacity:0.8;" x="129.997529" xlink:href="#ma778d2c153" y="94.6944"/>
     <use style="fill:#00956e;fill-opacity:0.8;stroke:#00956e;stroke-opacity:0.8;" x="141.219697" xlink:href="#ma778d2c153" y="41.472"/>
     <use style="fill:#00956e;fill-opacity:0.8;stroke:#00956e;stroke-opacity:0.8;" x="159.899003" xlink:href="#ma778d2c153" y="201.1392"/>
     <use style="fill:#00956e;fill-opacity:0.8;stroke:#00956e;stroke-opacity:0.8;" x="100.486858" xlink:href="#ma778d2c153" y="41.472"/>
     <use style="fill:#00956e;fill-opacity:0.8;stroke:#00956e;stroke-opacity:0.8;" x="66.514573" xlink:href="#ma778d2c153" y="94.6944"/>
     <use style="fill:#00956e;fill-opacity:0.8;stroke:#00956e;stroke-opacity:0.8;" x="151.053223" xlink:href="#ma778d2c153" y="94.6944"/>
     <use style="fill:#00956e;fill-opacity:0.8;stroke:#00956e;stroke-opacity:0.8;" x="145.639135" xlink:href="#ma778d2c153" y="41.472"/>
     <use style="fill:#00956e;fill-opacity:0.8;stroke:#00956e;stroke-opacity:0.8;" x="144.893871" xlink:href="#ma778d2c153" y="174.528"/>
     <use style="fill:#00956e;fill-opacity:0.8;stroke:#00956e;stroke-opacity:0.8;" x="144.331908" xlink:href="#ma778d2c153" y="41.472"/>
     <use style="fill:#00956e;fill-opacity:0.8;stroke:#00956e;stroke-opacity:0.8;" x="150.543065" xlink:href="#ma778d2c153" y="41.472"/>
     <use style="fill:#00956e;fill-opacity:0.8;stroke:#00956e;stroke-opacity:0.8;" x="144.71126" xlink:href="#ma778d2c153" y="201.1392"/>
     <use style="fill:#00956e;fill-opacity:0.8;stroke:#00956e;stroke-opacity:0.8;" x="161.178806" xlink:href="#ma778d2c153" y="201.1392"/>
     <use style="fill:#00956e;fill-opacity:0.8;stroke:#00956e;stroke-opacity:0.8;" x="145.73745" xlink:href="#ma778d2c153" y="41.472"/>
     <use style="fill:#00956e;fill-opacity:0.8;stroke:#00956e;stroke-opacity:0.8;" x="155.392758" xlink:href="#ma778d2c153" y="41.472"/>
     <use style="fill:#00956e;fill-opacity:0.8;stroke:#00956e;stroke-opacity:0.8;" x="140.271887" xlink:href="#ma778d2c153" y="201.1392"/>
     <use style="fill:#00956e;fill-opacity:0.8;stroke:#00956e;stroke-opacity:0.8;" x="156.249293" xlink:href="#ma778d2c153" y="201.1392"/>
     <use style="fill:#00956e;fill-opacity:0.8;stroke:#00956e;stroke-opacity:0.8;" x="150.96623" xlink:href="#ma778d2c153" y="41.472"/>
     <use style="fill:#00956e;fill-opacity:0.8;stroke:#00956e;stroke-opacity:0.8;" x="148.534057" xlink:href="#ma778d2c153" y="147.9168"/>
     <use style="fill:#00956e;fill-opacity:0.8;stroke:#00956e;stroke-opacity:0.8;" x="152.297223" xlink:href="#ma778d2c153" y="41.472"/>
     <use style="fill:#00956e;fill-opacity:0.8;stroke:#00956e;stroke-opacity:0.8;" x="149.573222" xlink:href="#ma778d2c153" y="41.472"/>
     <use style="fill:#00956e;fill-opacity:0.8;stroke:#00956e;stroke-opacity:0.8;" x="115.111364" xlink:href="#ma778d2c153" y="147.9168"/>
     <use style="fill:#00956e;fill-opacity:0.8;stroke:#00956e;stroke-opacity:0.8;" x="141.862853" xlink:href="#ma778d2c153" y="41.472"/>
     <use style="fill:#00956e;fill-opacity:0.8;stroke:#00956e;stroke-opacity:0.8;" x="162.635294" xlink:href="#ma778d2c153" y="254.3616"/>
     <use style="fill:#00956e;fill-opacity:0.8;stroke:#00956e;stroke-opacity:0.8;" x="137.188374" xlink:href="#ma778d2c153" y="147.9168"/>
     <use style="fill:#00956e;fill-opacity:0.8;stroke:#00956e;stroke-opacity:0.8;" x="155.620132" xlink:href="#ma778d2c153" y="41.472"/>
     <use style="fill:#00956e;fill-opacity:0.8;stroke:#00956e;stroke-opacity:0.8;" x="139.232488" xlink:href="#ma778d2c153" y="41.472"/>
     <use style="fill:#00956e;fill-opacity:0.8;stroke:#00956e;stroke-opacity:0.8;" x="132.734518" xlink:href="#ma778d2c153" y="94.6944"/>
     <use style="fill:#00956e;fill-opacity:0.8;stroke:#00956e;stroke-opacity:0.8;" x="96.258746" xlink:href="#ma778d2c153" y="41.472"/>
     <use style="fill:#00956e;fill-opacity:0.8;stroke:#00956e;stroke-opacity:0.8;" x="154.639714" xlink:href="#ma778d2c153" y="41.472"/>
     <use style="fill:#00956e;fill-opacity:0.8;stroke:#00956e;stroke-opacity:0.8;" x="134.208626" xlink:href="#ma778d2c153" y="201.1392"/>
     <use style="fill:#00956e;fill-opacity:0.8;stroke:#00956e;stroke-opacity:0.8;" x="149.650215" xlink:href="#ma778d2c153" y="41.472"/>
     <use style="fill:#00956e;fill-opacity:0.8;stroke:#00956e;stroke-opacity:0.8;" x="118.365528" xlink:href="#ma778d2c153" y="201.1392"/>
     <use style="fill:#00956e;fill-opacity:0.8;stroke:#00956e;stroke-opacity:0.8;" x="149.694231" xlink:href="#ma778d2c153" y="254.3616"/>
     <use style="fill:#00956e;fill-opacity:0.8;stroke:#00956e;stroke-opacity:0.8;" x="158.300876" xlink:href="#ma778d2c153" y="254.3616"/>
     <use style="fill:#00956e;fill-opacity:0.8;stroke:#00956e;stroke-opacity:0.8;" x="153.559877" xlink:href="#ma778d2c153" y="94.6944"/>
     <use style="fill:#00956e;fill-opacity:0.8;stroke:#00956e;stroke-opacity:0.8;" x="154.932363" xlink:href="#ma778d2c153" y="94.6944"/>
     <use style="fill:#00956e;fill-opacity:0.8;stroke:#00956e;stroke-opacity:0.8;" x="151.775414" xlink:href="#ma778d2c153" y="201.1392"/>
     <use style="fill:#00956e;fill-opacity:0.8;stroke:#00956e;stroke-opacity:0.8;" x="137.028779" xlink:href="#ma778d2c153" y="254.3616"/>
     <use style="fill:#00956e;fill-opacity:0.8;stroke:#00956e;stroke-opacity:0.8;" x="82.267325" xlink:href="#ma778d2c153" y="201.1392"/>
     <use style="fill:#00956e;fill-opacity:0.8;stroke:#00956e;stroke-opacity:0.8;" x="132.116662" xlink:href="#ma778d2c153" y="147.9168"/>
     <use style="fill:#00956e;fill-opacity:0.8;stroke:#00956e;stroke-opacity:0.8;" x="146.46659" xlink:href="#ma778d2c153" y="147.9168"/>
     <use style="fill:#00956e;fill-opacity:0.8;stroke:#00956e;stroke-opacity:0.8;" x="149.093222" xlink:href="#ma778d2c153" y="147.9168"/>
     <use style="fill:#00956e;fill-opacity:0.8;stroke:#00956e;stroke-opacity:0.8;" x="139.23522" xlink:href="#ma778d2c153" y="41.472"/>
     <use style="fill:#00956e;fill-opacity:0.8;stroke:#00956e;stroke-opacity:0.8;" x="129.007648" xlink:href="#ma778d2c153" y="254.3616"/>
     <use style="fill:#00956e;fill-opacity:0.8;stroke:#00956e;stroke-opacity:0.8;" x="151.257157" xlink:href="#ma778d2c153" y="254.3616"/>
     <use style="fill:#00956e;fill-opacity:0.8;stroke:#00956e;stroke-opacity:0.8;" x="151.89866" xlink:href="#ma778d2c153" y="94.6944"/>
     <use style="fill:#00956e;fill-opacity:0.8;stroke:#00956e;stroke-opacity:0.8;" x="138.371666" xlink:href="#ma778d2c153" y="41.472"/>
     <use style="fill:#00956e;fill-opacity:0.8;stroke:#00956e;stroke-opacity:0.8;" x="157.148824" xlink:href="#ma778d2c153" y="201.1392"/>
     <use style="fill:#00956e;fill-opacity:0.8;stroke:#00956e;stroke-opacity:0.8;" x="132.192573" xlink:href="#ma778d2c153" y="94.6944"/>
     <use style="fill:#00956e;fill-opacity:0.8;stroke:#00956e;stroke-opacity:0.8;" x="141.91057" xlink:href="#ma778d2c153" y="201.1392"/>
     <use style="fill:#00956e;fill-opacity:0.8;stroke:#00956e;stroke-opacity:0.8;" x="78.641266" xlink:href="#ma778d2c153" y="147.9168"/>
     <use style="fill:#00956e;fill-opacity:0.8;stroke:#00956e;stroke-opacity:0.8;" x="152.900748" xlink:href="#ma778d2c153" y="41.472"/>
     <use style="fill:#00956e;fill-opacity:0.8;stroke:#00956e;stroke-opacity:0.8;" x="57.6" xlink:href="#ma778d2c153" y="41.472"/>
     <use style="fill:#00956e;fill-opacity:0.8;stroke:#00956e;stroke-opacity:0.8;" x="136.213625" xlink:href="#ma778d2c153" y="147.9168"/>
    </g>
   </g>
   <g id="line2d_9">
    <path clip-path="url(#p655ce9483c)" d="M 57.6 86.548121 
L 58.660963 87.304971 
L 59.721925 88.06182 
L 60.782888 88.81867 
L 61.84385 89.57552 
L 62.904813 90.332369 
L 63.965775 91.089219 
L 65.026738 91.846068 
L 66.087701 92.602918 
L 67.148663 93.359767 
L 68.209626 94.116617 
L 69.270588 94.873466 
L 70.331551 95.630316 
L 71.392513 96.387166 
L 72.453476 97.144015 
L 73.514439 97.900865 
L 74.575401 98.657714 
L 75.636364 99.414564 
L 76.697326 100.171413 
L 77.758289 100.928263 
L 78.819251 101.685112 
L 79.880214 102.441962 
L 80.941176 103.198812 
L 82.002139 103.955661 
L 83.063102 104.712511 
L 84.124064 105.46936 
L 85.185027 106.22621 
L 86.245989 106.983059 
L 87.306952 107.739909 
L 88.367914 108.496758 
L 89.428877 109.253608 
L 90.48984 110.010457 
L 91.550802 110.767307 
L 92.611765 111.524157 
L 93.672727 112.281006 
L 94.73369 113.037856 
L 95.794652 113.794705 
L 96.855615 114.551555 
L 97.916578 115.308404 
L 98.97754 116.065254 
L 100.038503 116.822103 
L 101.099465 117.578953 
L 102.160428 118.335803 
L 103.22139 119.092652 
L 104.282353 119.849502 
L 105.343316 120.606351 
L 106.404278 121.363201 
L 107.465241 122.12005 
L 108.526203 122.8769 
L 109.587166 123.633749 
L 110.648128 124.390599 
L 111.709091 125.147449 
L 112.770053 125.904298 
L 113.831016 126.661148 
L 114.891979 127.417997 
L 115.952941 128.174847 
L 117.013904 128.931696 
L 118.074866 129.688546 
L 119.135829 130.445395 
L 120.196791 131.202245 
L 121.257754 131.959095 
L 122.318717 132.715944 
L 123.379679 133.472794 
L 124.440642 134.229643 
L 125.501604 134.986493 
L 126.562567 135.743342 
L 127.623529 136.500192 
L 128.684492 137.257041 
L 129.745455 138.013891 
L 130.806417 138.770741 
L 131.86738 139.52759 
L 132.928342 140.28444 
L 133.989305 141.041289 
L 135.050267 141.798139 
L 136.11123 142.554988 
L 137.172193 143.311838 
L 138.233155 144.068687 
L 139.294118 144.825537 
L 140.35508 145.582387 
L 141.416043 146.339236 
L 142.477005 147.096086 
L 143.537968 147.852935 
L 144.59893 148.609785 
L 145.659893 149.366634 
L 146.720856 150.123484 
L 147.781818 150.880333 
L 148.842781 151.637183 
L 149.903743 152.394033 
L 150.964706 153.150882 
L 152.025668 153.907732 
L 153.086631 154.664581 
L 154.147594 155.421431 
L 155.208556 156.17828 
L 156.269519 156.93513 
L 157.330481 157.691979 
L 158.391444 158.448829 
L 159.452406 159.205678 
L 160.513369 159.962528 
L 161.574332 160.719378 
L 162.635294 161.476227 
" style="fill:none;stroke:#00956e;stroke-linecap:round;stroke-width:2.25;"/>
   </g>
   <g id="patch_3">
    <path d="M 57.6 307.584 
L 57.6 41.472 
" style="fill:none;stroke:#ffffff;stroke-linecap:square;stroke-linejoin:miter;stroke-width:1.25;"/>
   </g>
   <g id="patch_4">
    <path d="M 162.635294 307.584 
L 162.635294 41.472 
" style="fill:none;stroke:#ffffff;stroke-linecap:square;stroke-linejoin:miter;stroke-width:1.25;"/>
   </g>
   <g id="patch_5">
    <path d="M 57.6 307.584 
L 162.635294 307.584 
" style="fill:none;stroke:#ffffff;stroke-linecap:square;stroke-linejoin:miter;stroke-width:1.25;"/>
   </g>
   <g id="patch_6">
    <path d="M 57.6 41.472 
L 162.635294 41.472 
" style="fill:none;stroke:#ffffff;stroke-linecap:square;stroke-linejoin:miter;stroke-width:1.25;"/>
   </g>
  </g>
  <g id="axes_2">
   <g id="patch_7">
    <path d="M 183.642353 307.584 
L 288.677647 307.584 
L 288.677647 41.472 
L 183.642353 41.472 
z
" style="fill:#eaeaf2;"/>
   </g>
   <g id="matplotlib.axis_3">
    <g id="xtick_3">
     <g id="line2d_10">
      <path clip-path="url(#pd35f1e8b24)" d="M 183.642353 307.584 
L 183.642353 41.472 
" style="fill:none;stroke:#ffffff;stroke-linecap:round;"/>
     </g>
     <g id="text_11">
      <!-- 0.0 -->
      <g style="fill:#262626;" transform="translate(175.997353 324.957594)scale(0.11 -0.11)">
       <use xlink:href="#ArialMT-48"/>
       <use x="55.615234" xlink:href="#ArialMT-46"/>
       <use x="83.398438" xlink:href="#ArialMT-48"/>
      </g>
     </g>
    </g>
    <g id="xtick_4">
     <g id="line2d_11">
      <path clip-path="url(#pd35f1e8b24)" d="M 231.405771 307.584 
L 231.405771 41.472 
" style="fill:none;stroke:#ffffff;stroke-linecap:round;"/>
     </g>
     <g id="text_12">
      <!-- 0.2 -->
      <g style="fill:#262626;" transform="translate(223.760771 324.957594)scale(0.11 -0.11)">
       <use xlink:href="#ArialMT-48"/>
       <use x="55.615234" xlink:href="#ArialMT-46"/>
       <use x="83.398438" xlink:href="#ArialMT-50"/>
      </g>
     </g>
    </g>
    <g id="xtick_5">
     <g id="line2d_12">
      <path clip-path="url(#pd35f1e8b24)" d="M 279.169189 307.584 
L 279.169189 41.472 
" style="fill:none;stroke:#ffffff;stroke-linecap:round;"/>
     </g>
     <g id="text_13">
      <!-- 0.4 -->
      <g style="fill:#262626;" transform="translate(271.524189 324.957594)scale(0.11 -0.11)">
       <use xlink:href="#ArialMT-48"/>
       <use x="55.615234" xlink:href="#ArialMT-46"/>
       <use x="83.398438" xlink:href="#ArialMT-52"/>
      </g>
     </g>
    </g>
    <g id="text_14">
     <!-- English Learners -->
     <defs>
      <path d="M 7.90625 0 
L 7.90625 71.578125 
L 59.671875 71.578125 
L 59.671875 63.140625 
L 17.390625 63.140625 
L 17.390625 41.21875 
L 56.984375 41.21875 
L 56.984375 32.8125 
L 17.390625 32.8125 
L 17.390625 8.453125 
L 61.328125 8.453125 
L 61.328125 0 
z
" id="ArialMT-69"/>
      <path d="M 4.984375 -4.296875 
L 13.53125 -5.5625 
Q 14.0625 -9.515625 16.5 -11.328125 
Q 19.78125 -13.765625 25.4375 -13.765625 
Q 31.546875 -13.765625 34.859375 -11.328125 
Q 38.1875 -8.890625 39.359375 -4.5 
Q 40.046875 -1.8125 39.984375 6.78125 
Q 34.234375 0 25.640625 0 
Q 14.9375 0 9.078125 7.71875 
Q 3.21875 15.4375 3.21875 26.21875 
Q 3.21875 33.640625 5.90625 39.90625 
Q 8.59375 46.1875 13.6875 49.609375 
Q 18.796875 53.03125 25.6875 53.03125 
Q 34.859375 53.03125 40.828125 45.609375 
L 40.828125 51.859375 
L 48.921875 51.859375 
L 48.921875 7.03125 
Q 48.921875 -5.078125 46.453125 -10.125 
Q 44 -15.1875 38.640625 -18.109375 
Q 33.296875 -21.046875 25.484375 -21.046875 
Q 16.21875 -21.046875 10.5 -16.875 
Q 4.78125 -12.703125 4.984375 -4.296875 
z
M 12.25 26.859375 
Q 12.25 16.65625 16.296875 11.96875 
Q 20.359375 7.28125 26.46875 7.28125 
Q 32.515625 7.28125 36.609375 11.9375 
Q 40.71875 16.609375 40.71875 26.5625 
Q 40.71875 36.078125 36.5 40.90625 
Q 32.28125 45.75 26.3125 45.75 
Q 20.453125 45.75 16.34375 40.984375 
Q 12.25 36.234375 12.25 26.859375 
z
" id="ArialMT-103"/>
      <path d="M 6.390625 0 
L 6.390625 71.578125 
L 15.1875 71.578125 
L 15.1875 0 
z
" id="ArialMT-108"/>
      <path d="M 6.59375 0 
L 6.59375 71.578125 
L 15.375 71.578125 
L 15.375 45.90625 
Q 21.53125 53.03125 30.90625 53.03125 
Q 36.671875 53.03125 40.921875 50.75 
Q 45.171875 48.484375 47 44.484375 
Q 48.828125 40.484375 48.828125 32.859375 
L 48.828125 0 
L 40.046875 0 
L 40.046875 32.859375 
Q 40.046875 39.453125 37.1875 42.453125 
Q 34.328125 45.453125 29.109375 45.453125 
Q 25.203125 45.453125 21.75 43.421875 
Q 18.3125 41.40625 16.84375 37.9375 
Q 15.375 34.46875 15.375 28.375 
L 15.375 0 
z
" id="ArialMT-104"/>
      <path d="M 40.4375 6.390625 
Q 35.546875 2.25 31.03125 0.53125 
Q 26.515625 -1.171875 21.34375 -1.171875 
Q 12.796875 -1.171875 8.203125 3 
Q 3.609375 7.171875 3.609375 13.671875 
Q 3.609375 17.484375 5.34375 20.625 
Q 7.078125 23.78125 9.890625 25.6875 
Q 12.703125 27.59375 16.21875 28.5625 
Q 18.796875 29.25 24.03125 29.890625 
Q 34.671875 31.15625 39.703125 32.90625 
Q 39.75 34.71875 39.75 35.203125 
Q 39.75 40.578125 37.25 42.78125 
Q 33.890625 45.75 27.25 45.75 
Q 21.046875 45.75 18.09375 43.578125 
Q 15.140625 41.40625 13.71875 35.890625 
L 5.125 37.0625 
Q 6.296875 42.578125 8.984375 45.96875 
Q 11.671875 49.359375 16.75 51.1875 
Q 21.828125 53.03125 28.515625 53.03125 
Q 35.15625 53.03125 39.296875 51.46875 
Q 43.453125 49.90625 45.40625 47.53125 
Q 47.359375 45.171875 48.140625 41.546875 
Q 48.578125 39.3125 48.578125 33.453125 
L 48.578125 21.734375 
Q 48.578125 9.46875 49.140625 6.21875 
Q 49.703125 2.984375 51.375 0 
L 42.1875 0 
Q 40.828125 2.734375 40.4375 6.390625 
z
M 39.703125 26.03125 
Q 34.90625 24.078125 25.34375 22.703125 
Q 19.921875 21.921875 17.671875 20.9375 
Q 15.4375 19.96875 14.203125 18.09375 
Q 12.984375 16.21875 12.984375 13.921875 
Q 12.984375 10.40625 15.640625 8.0625 
Q 18.3125 5.71875 23.4375 5.71875 
Q 28.515625 5.71875 32.46875 7.9375 
Q 36.421875 10.15625 38.28125 14.015625 
Q 39.703125 17 39.703125 22.796875 
z
" id="ArialMT-97"/>
      <path d="M 6.5 0 
L 6.5 51.859375 
L 14.40625 51.859375 
L 14.40625 44 
Q 17.4375 49.515625 20 51.265625 
Q 22.5625 53.03125 25.640625 53.03125 
Q 30.078125 53.03125 34.671875 50.203125 
L 31.640625 42.046875 
Q 28.421875 43.953125 25.203125 43.953125 
Q 22.3125 43.953125 20.015625 42.21875 
Q 17.71875 40.484375 16.75 37.40625 
Q 15.28125 32.71875 15.28125 27.15625 
L 15.28125 0 
z
" id="ArialMT-114"/>
     </defs>
     <g style="fill:#262626;" transform="translate(191.136563 339.733219)scale(0.12 -0.12)">
      <use xlink:href="#ArialMT-69"/>
      <use x="66.699219" xlink:href="#ArialMT-110"/>
      <use x="122.314453" xlink:href="#ArialMT-103"/>
      <use x="177.929688" xlink:href="#ArialMT-108"/>
      <use x="200.146484" xlink:href="#ArialMT-105"/>
      <use x="222.363281" xlink:href="#ArialMT-115"/>
      <use x="272.363281" xlink:href="#ArialMT-104"/>
      <use x="327.978516" xlink:href="#ArialMT-32"/>
      <use x="355.761719" xlink:href="#ArialMT-76"/>
      <use x="411.376953" xlink:href="#ArialMT-101"/>
      <use x="466.992188" xlink:href="#ArialMT-97"/>
      <use x="522.607422" xlink:href="#ArialMT-114"/>
      <use x="555.908203" xlink:href="#ArialMT-110"/>
      <use x="611.523438" xlink:href="#ArialMT-101"/>
      <use x="667.138672" xlink:href="#ArialMT-114"/>
      <use x="700.439453" xlink:href="#ArialMT-115"/>
     </g>
    </g>
   </g>
   <g id="matplotlib.axis_4">
    <g id="ytick_7">
     <g id="line2d_13">
      <path clip-path="url(#pd35f1e8b24)" d="M 183.642353 307.584 
L 288.677647 307.584 
" style="fill:none;stroke:#ffffff;stroke-linecap:round;"/>
     </g>
    </g>
    <g id="ytick_8">
     <g id="line2d_14">
      <path clip-path="url(#pd35f1e8b24)" d="M 183.642353 254.3616 
L 288.677647 254.3616 
" style="fill:none;stroke:#ffffff;stroke-linecap:round;"/>
     </g>
    </g>
    <g id="ytick_9">
     <g id="line2d_15">
      <path clip-path="url(#pd35f1e8b24)" d="M 183.642353 201.1392 
L 288.677647 201.1392 
" style="fill:none;stroke:#ffffff;stroke-linecap:round;"/>
     </g>
    </g>
    <g id="ytick_10">
     <g id="line2d_16">
      <path clip-path="url(#pd35f1e8b24)" d="M 183.642353 147.9168 
L 288.677647 147.9168 
" style="fill:none;stroke:#ffffff;stroke-linecap:round;"/>
     </g>
    </g>
    <g id="ytick_11">
     <g id="line2d_17">
      <path clip-path="url(#pd35f1e8b24)" d="M 183.642353 94.6944 
L 288.677647 94.6944 
" style="fill:none;stroke:#ffffff;stroke-linecap:round;"/>
     </g>
    </g>
    <g id="ytick_12">
     <g id="line2d_18">
      <path clip-path="url(#pd35f1e8b24)" d="M 183.642353 41.472 
L 288.677647 41.472 
" style="fill:none;stroke:#ffffff;stroke-linecap:round;"/>
     </g>
    </g>
   </g>
   <g id="PathCollection_2">
    <defs>
     <path d="M 0 3 
C 0.795609 3 1.55874 2.683901 2.12132 2.12132 
C 2.683901 1.55874 3 0.795609 3 0 
C 3 -0.795609 2.683901 -1.55874 2.12132 -2.12132 
C 1.55874 -2.683901 0.795609 -3 0 -3 
C -0.795609 -3 -1.55874 -2.683901 -2.12132 -2.12132 
C -2.683901 -1.55874 -3 -0.795609 -3 0 
C -3 0.795609 -2.683901 1.55874 -2.12132 2.12132 
C -1.55874 2.683901 -0.795609 3 0 3 
z
" id="m44eb3e74b5" style="stroke:#8a1a9c;stroke-opacity:0.8;"/>
    </defs>
    <g clip-path="url(#pd35f1e8b24)">
     <use style="fill:#8a1a9c;fill-opacity:0.8;stroke:#8a1a9c;stroke-opacity:0.8;" x="200.823439" xlink:href="#m44eb3e74b5" y="94.6944"/>
     <use style="fill:#8a1a9c;fill-opacity:0.8;stroke:#8a1a9c;stroke-opacity:0.8;" x="185.356351" xlink:href="#m44eb3e74b5" y="201.1392"/>
     <use style="fill:#8a1a9c;fill-opacity:0.8;stroke:#8a1a9c;stroke-opacity:0.8;" x="218.621449" xlink:href="#m44eb3e74b5" y="217.10592"/>
     <use style="fill:#8a1a9c;fill-opacity:0.8;stroke:#8a1a9c;stroke-opacity:0.8;" x="184.114323" xlink:href="#m44eb3e74b5" y="147.9168"/>
     <use style="fill:#8a1a9c;fill-opacity:0.8;stroke:#8a1a9c;stroke-opacity:0.8;" x="186.463027" xlink:href="#m44eb3e74b5" y="94.6944"/>
     <use style="fill:#8a1a9c;fill-opacity:0.8;stroke:#8a1a9c;stroke-opacity:0.8;" x="218.846466" xlink:href="#m44eb3e74b5" y="41.472"/>
     <use style="fill:#8a1a9c;fill-opacity:0.8;stroke:#8a1a9c;stroke-opacity:0.8;" x="189.261579" xlink:href="#m44eb3e74b5" y="201.1392"/>
     <use style="fill:#8a1a9c;fill-opacity:0.8;stroke:#8a1a9c;stroke-opacity:0.8;" x="207.740326" xlink:href="#m44eb3e74b5" y="174.528"/>
     <use style="fill:#8a1a9c;fill-opacity:0.8;stroke:#8a1a9c;stroke-opacity:0.8;" x="288.677647" xlink:href="#m44eb3e74b5" y="201.1392"/>
     <use style="fill:#8a1a9c;fill-opacity:0.8;stroke:#8a1a9c;stroke-opacity:0.8;" x="184.272477" xlink:href="#m44eb3e74b5" y="254.3616"/>
     <use style="fill:#8a1a9c;fill-opacity:0.8;stroke:#8a1a9c;stroke-opacity:0.8;" x="185.398361" xlink:href="#m44eb3e74b5" y="254.3616"/>
     <use style="fill:#8a1a9c;fill-opacity:0.8;stroke:#8a1a9c;stroke-opacity:0.8;" x="183.642353" xlink:href="#m44eb3e74b5" y="254.3616"/>
     <use style="fill:#8a1a9c;fill-opacity:0.8;stroke:#8a1a9c;stroke-opacity:0.8;" x="216.386276" xlink:href="#m44eb3e74b5" y="217.10592"/>
     <use style="fill:#8a1a9c;fill-opacity:0.8;stroke:#8a1a9c;stroke-opacity:0.8;" x="193.707441" xlink:href="#m44eb3e74b5" y="254.3616"/>
     <use style="fill:#8a1a9c;fill-opacity:0.8;stroke:#8a1a9c;stroke-opacity:0.8;" x="205.74129" xlink:href="#m44eb3e74b5" y="201.1392"/>
     <use style="fill:#8a1a9c;fill-opacity:0.8;stroke:#8a1a9c;stroke-opacity:0.8;" x="184.451902" xlink:href="#m44eb3e74b5" y="254.3616"/>
     <use style="fill:#8a1a9c;fill-opacity:0.8;stroke:#8a1a9c;stroke-opacity:0.8;" x="184.50218" xlink:href="#m44eb3e74b5" y="201.1392"/>
     <use style="fill:#8a1a9c;fill-opacity:0.8;stroke:#8a1a9c;stroke-opacity:0.8;" x="247.248093" xlink:href="#m44eb3e74b5" y="174.528"/>
     <use style="fill:#8a1a9c;fill-opacity:0.8;stroke:#8a1a9c;stroke-opacity:0.8;" x="255.150229" xlink:href="#m44eb3e74b5" y="201.1392"/>
     <use style="fill:#8a1a9c;fill-opacity:0.8;stroke:#8a1a9c;stroke-opacity:0.8;" x="189.97297" xlink:href="#m44eb3e74b5" y="147.9168"/>
     <use style="fill:#8a1a9c;fill-opacity:0.8;stroke:#8a1a9c;stroke-opacity:0.8;" x="185.657687" xlink:href="#m44eb3e74b5" y="254.3616"/>
     <use style="fill:#8a1a9c;fill-opacity:0.8;stroke:#8a1a9c;stroke-opacity:0.8;" x="251.020215" xlink:href="#m44eb3e74b5" y="94.6944"/>
     <use style="fill:#8a1a9c;fill-opacity:0.8;stroke:#8a1a9c;stroke-opacity:0.8;" x="261.728132" xlink:href="#m44eb3e74b5" y="147.9168"/>
     <use style="fill:#8a1a9c;fill-opacity:0.8;stroke:#8a1a9c;stroke-opacity:0.8;" x="185.616048" xlink:href="#m44eb3e74b5" y="68.0832"/>
     <use style="fill:#8a1a9c;fill-opacity:0.8;stroke:#8a1a9c;stroke-opacity:0.8;" x="204.909276" xlink:href="#m44eb3e74b5" y="94.6944"/>
     <use style="fill:#8a1a9c;fill-opacity:0.8;stroke:#8a1a9c;stroke-opacity:0.8;" x="228.314288" xlink:href="#m44eb3e74b5" y="121.3056"/>
     <use style="fill:#8a1a9c;fill-opacity:0.8;stroke:#8a1a9c;stroke-opacity:0.8;" x="188.665275" xlink:href="#m44eb3e74b5" y="254.3616"/>
     <use style="fill:#8a1a9c;fill-opacity:0.8;stroke:#8a1a9c;stroke-opacity:0.8;" x="269.21042" xlink:href="#m44eb3e74b5" y="147.9168"/>
     <use style="fill:#8a1a9c;fill-opacity:0.8;stroke:#8a1a9c;stroke-opacity:0.8;" x="186.363319" xlink:href="#m44eb3e74b5" y="41.472"/>
     <use style="fill:#8a1a9c;fill-opacity:0.8;stroke:#8a1a9c;stroke-opacity:0.8;" x="267.651769" xlink:href="#m44eb3e74b5" y="201.1392"/>
     <use style="fill:#8a1a9c;fill-opacity:0.8;stroke:#8a1a9c;stroke-opacity:0.8;" x="270.023002" xlink:href="#m44eb3e74b5" y="147.9168"/>
     <use style="fill:#8a1a9c;fill-opacity:0.8;stroke:#8a1a9c;stroke-opacity:0.8;" x="237.01018" xlink:href="#m44eb3e74b5" y="201.1392"/>
     <use style="fill:#8a1a9c;fill-opacity:0.8;stroke:#8a1a9c;stroke-opacity:0.8;" x="209.966149" xlink:href="#m44eb3e74b5" y="254.3616"/>
     <use style="fill:#8a1a9c;fill-opacity:0.8;stroke:#8a1a9c;stroke-opacity:0.8;" x="184.838432" xlink:href="#m44eb3e74b5" y="201.1392"/>
     <use style="fill:#8a1a9c;fill-opacity:0.8;stroke:#8a1a9c;stroke-opacity:0.8;" x="205.531735" xlink:href="#m44eb3e74b5" y="174.528"/>
     <use style="fill:#8a1a9c;fill-opacity:0.8;stroke:#8a1a9c;stroke-opacity:0.8;" x="251.570649" xlink:href="#m44eb3e74b5" y="147.9168"/>
     <use style="fill:#8a1a9c;fill-opacity:0.8;stroke:#8a1a9c;stroke-opacity:0.8;" x="183.642353" xlink:href="#m44eb3e74b5" y="201.1392"/>
     <use style="fill:#8a1a9c;fill-opacity:0.8;stroke:#8a1a9c;stroke-opacity:0.8;" x="252.030883" xlink:href="#m44eb3e74b5" y="147.9168"/>
     <use style="fill:#8a1a9c;fill-opacity:0.8;stroke:#8a1a9c;stroke-opacity:0.8;" x="235.105558" xlink:href="#m44eb3e74b5" y="201.1392"/>
     <use style="fill:#8a1a9c;fill-opacity:0.8;stroke:#8a1a9c;stroke-opacity:0.8;" x="250.391493" xlink:href="#m44eb3e74b5" y="201.1392"/>
     <use style="fill:#8a1a9c;fill-opacity:0.8;stroke:#8a1a9c;stroke-opacity:0.8;" x="184.551786" xlink:href="#m44eb3e74b5" y="254.3616"/>
     <use style="fill:#8a1a9c;fill-opacity:0.8;stroke:#8a1a9c;stroke-opacity:0.8;" x="223.864179" xlink:href="#m44eb3e74b5" y="41.472"/>
     <use style="fill:#8a1a9c;fill-opacity:0.8;stroke:#8a1a9c;stroke-opacity:0.8;" x="258.987463" xlink:href="#m44eb3e74b5" y="41.472"/>
     <use style="fill:#8a1a9c;fill-opacity:0.8;stroke:#8a1a9c;stroke-opacity:0.8;" x="185.194553" xlink:href="#m44eb3e74b5" y="94.6944"/>
     <use style="fill:#8a1a9c;fill-opacity:0.8;stroke:#8a1a9c;stroke-opacity:0.8;" x="188.221442" xlink:href="#m44eb3e74b5" y="121.3056"/>
     <use style="fill:#8a1a9c;fill-opacity:0.8;stroke:#8a1a9c;stroke-opacity:0.8;" x="187.10347" xlink:href="#m44eb3e74b5" y="201.1392"/>
     <use style="fill:#8a1a9c;fill-opacity:0.8;stroke:#8a1a9c;stroke-opacity:0.8;" x="230.537345" xlink:href="#m44eb3e74b5" y="201.1392"/>
     <use style="fill:#8a1a9c;fill-opacity:0.8;stroke:#8a1a9c;stroke-opacity:0.8;" x="185.774648" xlink:href="#m44eb3e74b5" y="94.6944"/>
     <use style="fill:#8a1a9c;fill-opacity:0.8;stroke:#8a1a9c;stroke-opacity:0.8;" x="221.872947" xlink:href="#m44eb3e74b5" y="147.9168"/>
     <use style="fill:#8a1a9c;fill-opacity:0.8;stroke:#8a1a9c;stroke-opacity:0.8;" x="186.690155" xlink:href="#m44eb3e74b5" y="94.6944"/>
     <use style="fill:#8a1a9c;fill-opacity:0.8;stroke:#8a1a9c;stroke-opacity:0.8;" x="215.709665" xlink:href="#m44eb3e74b5" y="94.6944"/>
     <use style="fill:#8a1a9c;fill-opacity:0.8;stroke:#8a1a9c;stroke-opacity:0.8;" x="208.40857" xlink:href="#m44eb3e74b5" y="41.472"/>
     <use style="fill:#8a1a9c;fill-opacity:0.8;stroke:#8a1a9c;stroke-opacity:0.8;" x="257.625817" xlink:href="#m44eb3e74b5" y="201.1392"/>
     <use style="fill:#8a1a9c;fill-opacity:0.8;stroke:#8a1a9c;stroke-opacity:0.8;" x="186.242044" xlink:href="#m44eb3e74b5" y="41.472"/>
     <use style="fill:#8a1a9c;fill-opacity:0.8;stroke:#8a1a9c;stroke-opacity:0.8;" x="186.203721" xlink:href="#m44eb3e74b5" y="94.6944"/>
     <use style="fill:#8a1a9c;fill-opacity:0.8;stroke:#8a1a9c;stroke-opacity:0.8;" x="253.882673" xlink:href="#m44eb3e74b5" y="94.6944"/>
     <use style="fill:#8a1a9c;fill-opacity:0.8;stroke:#8a1a9c;stroke-opacity:0.8;" x="245.131803" xlink:href="#m44eb3e74b5" y="41.472"/>
     <use style="fill:#8a1a9c;fill-opacity:0.8;stroke:#8a1a9c;stroke-opacity:0.8;" x="210.551321" xlink:href="#m44eb3e74b5" y="174.528"/>
     <use style="fill:#8a1a9c;fill-opacity:0.8;stroke:#8a1a9c;stroke-opacity:0.8;" x="218.811437" xlink:href="#m44eb3e74b5" y="41.472"/>
     <use style="fill:#8a1a9c;fill-opacity:0.8;stroke:#8a1a9c;stroke-opacity:0.8;" x="216.413783" xlink:href="#m44eb3e74b5" y="41.472"/>
     <use style="fill:#8a1a9c;fill-opacity:0.8;stroke:#8a1a9c;stroke-opacity:0.8;" x="238.078601" xlink:href="#m44eb3e74b5" y="201.1392"/>
     <use style="fill:#8a1a9c;fill-opacity:0.8;stroke:#8a1a9c;stroke-opacity:0.8;" x="184.568001" xlink:href="#m44eb3e74b5" y="201.1392"/>
     <use style="fill:#8a1a9c;fill-opacity:0.8;stroke:#8a1a9c;stroke-opacity:0.8;" x="210.575029" xlink:href="#m44eb3e74b5" y="41.472"/>
     <use style="fill:#8a1a9c;fill-opacity:0.8;stroke:#8a1a9c;stroke-opacity:0.8;" x="216.502844" xlink:href="#m44eb3e74b5" y="41.472"/>
     <use style="fill:#8a1a9c;fill-opacity:0.8;stroke:#8a1a9c;stroke-opacity:0.8;" x="183.642353" xlink:href="#m44eb3e74b5" y="201.1392"/>
     <use style="fill:#8a1a9c;fill-opacity:0.8;stroke:#8a1a9c;stroke-opacity:0.8;" x="230.2909" xlink:href="#m44eb3e74b5" y="201.1392"/>
     <use style="fill:#8a1a9c;fill-opacity:0.8;stroke:#8a1a9c;stroke-opacity:0.8;" x="184.477378" xlink:href="#m44eb3e74b5" y="41.472"/>
     <use style="fill:#8a1a9c;fill-opacity:0.8;stroke:#8a1a9c;stroke-opacity:0.8;" x="195.109562" xlink:href="#m44eb3e74b5" y="147.9168"/>
     <use style="fill:#8a1a9c;fill-opacity:0.8;stroke:#8a1a9c;stroke-opacity:0.8;" x="218.270831" xlink:href="#m44eb3e74b5" y="41.472"/>
     <use style="fill:#8a1a9c;fill-opacity:0.8;stroke:#8a1a9c;stroke-opacity:0.8;" x="188.633707" xlink:href="#m44eb3e74b5" y="41.472"/>
     <use style="fill:#8a1a9c;fill-opacity:0.8;stroke:#8a1a9c;stroke-opacity:0.8;" x="193.211924" xlink:href="#m44eb3e74b5" y="147.9168"/>
     <use style="fill:#8a1a9c;fill-opacity:0.8;stroke:#8a1a9c;stroke-opacity:0.8;" x="187.054026" xlink:href="#m44eb3e74b5" y="41.472"/>
     <use style="fill:#8a1a9c;fill-opacity:0.8;stroke:#8a1a9c;stroke-opacity:0.8;" x="188.446145" xlink:href="#m44eb3e74b5" y="254.3616"/>
     <use style="fill:#8a1a9c;fill-opacity:0.8;stroke:#8a1a9c;stroke-opacity:0.8;" x="183.642353" xlink:href="#m44eb3e74b5" y="147.9168"/>
     <use style="fill:#8a1a9c;fill-opacity:0.8;stroke:#8a1a9c;stroke-opacity:0.8;" x="219.452568" xlink:href="#m44eb3e74b5" y="41.472"/>
     <use style="fill:#8a1a9c;fill-opacity:0.8;stroke:#8a1a9c;stroke-opacity:0.8;" x="219.657229" xlink:href="#m44eb3e74b5" y="41.472"/>
     <use style="fill:#8a1a9c;fill-opacity:0.8;stroke:#8a1a9c;stroke-opacity:0.8;" x="225.896664" xlink:href="#m44eb3e74b5" y="94.6944"/>
     <use style="fill:#8a1a9c;fill-opacity:0.8;stroke:#8a1a9c;stroke-opacity:0.8;" x="193.619046" xlink:href="#m44eb3e74b5" y="41.472"/>
     <use style="fill:#8a1a9c;fill-opacity:0.8;stroke:#8a1a9c;stroke-opacity:0.8;" x="184.822668" xlink:href="#m44eb3e74b5" y="41.472"/>
     <use style="fill:#8a1a9c;fill-opacity:0.8;stroke:#8a1a9c;stroke-opacity:0.8;" x="258.677388" xlink:href="#m44eb3e74b5" y="201.1392"/>
     <use style="fill:#8a1a9c;fill-opacity:0.8;stroke:#8a1a9c;stroke-opacity:0.8;" x="193.218978" xlink:href="#m44eb3e74b5" y="41.472"/>
     <use style="fill:#8a1a9c;fill-opacity:0.8;stroke:#8a1a9c;stroke-opacity:0.8;" x="184.120465" xlink:href="#m44eb3e74b5" y="201.1392"/>
     <use style="fill:#8a1a9c;fill-opacity:0.8;stroke:#8a1a9c;stroke-opacity:0.8;" x="184.645786" xlink:href="#m44eb3e74b5" y="254.3616"/>
     <use style="fill:#8a1a9c;fill-opacity:0.8;stroke:#8a1a9c;stroke-opacity:0.8;" x="187.795694" xlink:href="#m44eb3e74b5" y="254.3616"/>
     <use style="fill:#8a1a9c;fill-opacity:0.8;stroke:#8a1a9c;stroke-opacity:0.8;" x="213.858198" xlink:href="#m44eb3e74b5" y="94.6944"/>
     <use style="fill:#8a1a9c;fill-opacity:0.8;stroke:#8a1a9c;stroke-opacity:0.8;" x="183.642353" xlink:href="#m44eb3e74b5" y="94.6944"/>
     <use style="fill:#8a1a9c;fill-opacity:0.8;stroke:#8a1a9c;stroke-opacity:0.8;" x="199.068804" xlink:href="#m44eb3e74b5" y="201.1392"/>
     <use style="fill:#8a1a9c;fill-opacity:0.8;stroke:#8a1a9c;stroke-opacity:0.8;" x="185.286533" xlink:href="#m44eb3e74b5" y="254.3616"/>
     <use style="fill:#8a1a9c;fill-opacity:0.8;stroke:#8a1a9c;stroke-opacity:0.8;" x="185.203249" xlink:href="#m44eb3e74b5" y="201.1392"/>
     <use style="fill:#8a1a9c;fill-opacity:0.8;stroke:#8a1a9c;stroke-opacity:0.8;" x="190.592567" xlink:href="#m44eb3e74b5" y="147.9168"/>
     <use style="fill:#8a1a9c;fill-opacity:0.8;stroke:#8a1a9c;stroke-opacity:0.8;" x="186.809688" xlink:href="#m44eb3e74b5" y="147.9168"/>
     <use style="fill:#8a1a9c;fill-opacity:0.8;stroke:#8a1a9c;stroke-opacity:0.8;" x="183.642353" xlink:href="#m44eb3e74b5" y="147.9168"/>
     <use style="fill:#8a1a9c;fill-opacity:0.8;stroke:#8a1a9c;stroke-opacity:0.8;" x="200.558563" xlink:href="#m44eb3e74b5" y="41.472"/>
     <use style="fill:#8a1a9c;fill-opacity:0.8;stroke:#8a1a9c;stroke-opacity:0.8;" x="203.29186" xlink:href="#m44eb3e74b5" y="254.3616"/>
     <use style="fill:#8a1a9c;fill-opacity:0.8;stroke:#8a1a9c;stroke-opacity:0.8;" x="222.792696" xlink:href="#m44eb3e74b5" y="254.3616"/>
     <use style="fill:#8a1a9c;fill-opacity:0.8;stroke:#8a1a9c;stroke-opacity:0.8;" x="262.938901" xlink:href="#m44eb3e74b5" y="94.6944"/>
     <use style="fill:#8a1a9c;fill-opacity:0.8;stroke:#8a1a9c;stroke-opacity:0.8;" x="213.011445" xlink:href="#m44eb3e74b5" y="41.472"/>
     <use style="fill:#8a1a9c;fill-opacity:0.8;stroke:#8a1a9c;stroke-opacity:0.8;" x="183.642353" xlink:href="#m44eb3e74b5" y="201.1392"/>
     <use style="fill:#8a1a9c;fill-opacity:0.8;stroke:#8a1a9c;stroke-opacity:0.8;" x="185.568297" xlink:href="#m44eb3e74b5" y="94.6944"/>
     <use style="fill:#8a1a9c;fill-opacity:0.8;stroke:#8a1a9c;stroke-opacity:0.8;" x="187.09513" xlink:href="#m44eb3e74b5" y="201.1392"/>
     <use style="fill:#8a1a9c;fill-opacity:0.8;stroke:#8a1a9c;stroke-opacity:0.8;" x="186.909751" xlink:href="#m44eb3e74b5" y="147.9168"/>
     <use style="fill:#8a1a9c;fill-opacity:0.8;stroke:#8a1a9c;stroke-opacity:0.8;" x="218.125019" xlink:href="#m44eb3e74b5" y="41.472"/>
     <use style="fill:#8a1a9c;fill-opacity:0.8;stroke:#8a1a9c;stroke-opacity:0.8;" x="185.407011" xlink:href="#m44eb3e74b5" y="41.472"/>
     <use style="fill:#8a1a9c;fill-opacity:0.8;stroke:#8a1a9c;stroke-opacity:0.8;" x="204.857069" xlink:href="#m44eb3e74b5" y="147.9168"/>
    </g>
   </g>
   <g id="line2d_19">
    <path clip-path="url(#pd35f1e8b24)" d="M 183.642353 149.353994 
L 184.703316 149.16554 
L 185.764278 148.977086 
L 186.825241 148.788632 
L 187.886203 148.600177 
L 188.947166 148.411723 
L 190.008128 148.223269 
L 191.069091 148.034815 
L 192.130053 147.846361 
L 193.191016 147.657907 
L 194.251979 147.469453 
L 195.312941 147.280999 
L 196.373904 147.092545 
L 197.434866 146.904091 
L 198.495829 146.715637 
L 199.556791 146.527183 
L 200.617754 146.338729 
L 201.678717 146.150275 
L 202.739679 145.961821 
L 203.800642 145.773367 
L 204.861604 145.584913 
L 205.922567 145.396459 
L 206.983529 145.208005 
L 208.044492 145.019551 
L 209.105455 144.831096 
L 210.166417 144.642642 
L 211.22738 144.454188 
L 212.288342 144.265734 
L 213.349305 144.07728 
L 214.410267 143.888826 
L 215.47123 143.700372 
L 216.532193 143.511918 
L 217.593155 143.323464 
L 218.654118 143.13501 
L 219.71508 142.946556 
L 220.776043 142.758102 
L 221.837005 142.569648 
L 222.897968 142.381194 
L 223.95893 142.19274 
L 225.019893 142.004286 
L 226.080856 141.815832 
L 227.141818 141.627378 
L 228.202781 141.438924 
L 229.263743 141.25047 
L 230.324706 141.062015 
L 231.385668 140.873561 
L 232.446631 140.685107 
L 233.507594 140.496653 
L 234.568556 140.308199 
L 235.629519 140.119745 
L 236.690481 139.931291 
L 237.751444 139.742837 
L 238.812406 139.554383 
L 239.873369 139.365929 
L 240.934332 139.177475 
L 241.995294 138.989021 
L 243.056257 138.800567 
L 244.117219 138.612113 
L 245.178182 138.423659 
L 246.239144 138.235205 
L 247.300107 138.046751 
L 248.36107 137.858297 
L 249.422032 137.669843 
L 250.482995 137.481389 
L 251.543957 137.292935 
L 252.60492 137.10448 
L 253.665882 136.916026 
L 254.726845 136.727572 
L 255.787807 136.539118 
L 256.84877 136.350664 
L 257.909733 136.16221 
L 258.970695 135.973756 
L 260.031658 135.785302 
L 261.09262 135.596848 
L 262.153583 135.408394 
L 263.214545 135.21994 
L 264.275508 135.031486 
L 265.336471 134.843032 
L 266.397433 134.654578 
L 267.458396 134.466124 
L 268.519358 134.27767 
L 269.580321 134.089216 
L 270.641283 133.900762 
L 271.702246 133.712308 
L 272.763209 133.523854 
L 273.824171 133.335399 
L 274.885134 133.146945 
L 275.946096 132.958491 
L 277.007059 132.770037 
L 278.068021 132.581583 
L 279.128984 132.393129 
L 280.189947 132.204675 
L 281.250909 132.016221 
L 282.311872 131.827767 
L 283.372834 131.639313 
L 284.433797 131.450859 
L 285.494759 131.262405 
L 286.555722 131.073951 
L 287.616684 130.885497 
L 288.677647 130.697043 
" style="fill:none;stroke:#8a1a9c;stroke-linecap:round;stroke-width:2.25;"/>
   </g>
   <g id="patch_8">
    <path d="M 183.642353 307.584 
L 183.642353 41.472 
" style="fill:none;stroke:#ffffff;stroke-linecap:square;stroke-linejoin:miter;stroke-width:1.25;"/>
   </g>
   <g id="patch_9">
    <path d="M 288.677647 307.584 
L 288.677647 41.472 
" style="fill:none;stroke:#ffffff;stroke-linecap:square;stroke-linejoin:miter;stroke-width:1.25;"/>
   </g>
   <g id="patch_10">
    <path d="M 183.642353 307.584 
L 288.677647 307.584 
" style="fill:none;stroke:#ffffff;stroke-linecap:square;stroke-linejoin:miter;stroke-width:1.25;"/>
   </g>
   <g id="patch_11">
    <path d="M 183.642353 41.472 
L 288.677647 41.472 
" style="fill:none;stroke:#ffffff;stroke-linecap:square;stroke-linejoin:miter;stroke-width:1.25;"/>
   </g>
  </g>
  <g id="axes_3">
   <g id="patch_12">
    <path d="M 309.684706 307.584 
L 414.72 307.584 
L 414.72 41.472 
L 309.684706 41.472 
z
" style="fill:#eaeaf2;"/>
   </g>
   <g id="matplotlib.axis_5">
    <g id="xtick_6">
     <g id="line2d_20">
      <path clip-path="url(#p4260e6082b)" d="M 345.910197 307.584 
L 345.910197 41.472 
" style="fill:none;stroke:#ffffff;stroke-linecap:round;"/>
     </g>
     <g id="text_15">
      <!-- 0.2 -->
      <g style="fill:#262626;" transform="translate(338.265197 324.957594)scale(0.11 -0.11)">
       <use xlink:href="#ArialMT-48"/>
       <use x="55.615234" xlink:href="#ArialMT-46"/>
       <use x="83.398438" xlink:href="#ArialMT-50"/>
      </g>
     </g>
    </g>
    <g id="xtick_7">
     <g id="line2d_21">
      <path clip-path="url(#p4260e6082b)" d="M 387.263872 307.584 
L 387.263872 41.472 
" style="fill:none;stroke:#ffffff;stroke-linecap:round;"/>
     </g>
     <g id="text_16">
      <!-- 0.4 -->
      <g style="fill:#262626;" transform="translate(379.618872 324.957594)scale(0.11 -0.11)">
       <use xlink:href="#ArialMT-48"/>
       <use x="55.615234" xlink:href="#ArialMT-46"/>
       <use x="83.398438" xlink:href="#ArialMT-52"/>
      </g>
     </g>
    </g>
    <g id="text_17">
     <!-- Special Education -->
     <defs>
      <path d="M 6.59375 -19.875 
L 6.59375 51.859375 
L 14.59375 51.859375 
L 14.59375 45.125 
Q 17.4375 49.078125 21 51.046875 
Q 24.5625 53.03125 29.640625 53.03125 
Q 36.28125 53.03125 41.359375 49.609375 
Q 46.4375 46.1875 49.015625 39.953125 
Q 51.609375 33.734375 51.609375 26.3125 
Q 51.609375 18.359375 48.75 11.984375 
Q 45.90625 5.609375 40.453125 2.21875 
Q 35.015625 -1.171875 29 -1.171875 
Q 24.609375 -1.171875 21.109375 0.6875 
Q 17.625 2.546875 15.375 5.375 
L 15.375 -19.875 
z
M 14.546875 25.640625 
Q 14.546875 15.625 18.59375 10.84375 
Q 22.65625 6.0625 28.421875 6.0625 
Q 34.28125 6.0625 38.453125 11.015625 
Q 42.625 15.96875 42.625 26.375 
Q 42.625 36.28125 38.546875 41.203125 
Q 34.46875 46.140625 28.8125 46.140625 
Q 23.1875 46.140625 18.859375 40.890625 
Q 14.546875 35.640625 14.546875 25.640625 
z
" id="ArialMT-112"/>
      <path d="M 40.234375 0 
L 40.234375 6.546875 
Q 35.296875 -1.171875 25.734375 -1.171875 
Q 19.53125 -1.171875 14.328125 2.25 
Q 9.125 5.671875 6.265625 11.796875 
Q 3.421875 17.921875 3.421875 25.875 
Q 3.421875 33.640625 6 39.96875 
Q 8.59375 46.296875 13.765625 49.65625 
Q 18.953125 53.03125 25.34375 53.03125 
Q 30.03125 53.03125 33.6875 51.046875 
Q 37.359375 49.078125 39.65625 45.90625 
L 39.65625 71.578125 
L 48.390625 71.578125 
L 48.390625 0 
z
M 12.453125 25.875 
Q 12.453125 15.921875 16.640625 10.984375 
Q 20.84375 6.0625 26.5625 6.0625 
Q 32.328125 6.0625 36.34375 10.765625 
Q 40.375 15.484375 40.375 25.140625 
Q 40.375 35.796875 36.265625 40.765625 
Q 32.171875 45.75 26.171875 45.75 
Q 20.3125 45.75 16.375 40.96875 
Q 12.453125 36.1875 12.453125 25.875 
z
" id="ArialMT-100"/>
      <path d="M 40.578125 0 
L 40.578125 7.625 
Q 34.515625 -1.171875 24.125 -1.171875 
Q 19.53125 -1.171875 15.546875 0.578125 
Q 11.578125 2.34375 9.640625 5 
Q 7.71875 7.671875 6.9375 11.53125 
Q 6.390625 14.109375 6.390625 19.734375 
L 6.390625 51.859375 
L 15.1875 51.859375 
L 15.1875 23.09375 
Q 15.1875 16.21875 15.71875 13.8125 
Q 16.546875 10.359375 19.234375 8.375 
Q 21.921875 6.390625 25.875 6.390625 
Q 29.828125 6.390625 33.296875 8.421875 
Q 36.765625 10.453125 38.203125 13.9375 
Q 39.65625 17.4375 39.65625 24.078125 
L 39.65625 51.859375 
L 48.4375 51.859375 
L 48.4375 0 
z
" id="ArialMT-117"/>
     </defs>
     <g style="fill:#262626;" transform="translate(314.172353 339.879469)scale(0.12 -0.12)">
      <use xlink:href="#ArialMT-83"/>
      <use x="66.699219" xlink:href="#ArialMT-112"/>
      <use x="122.314453" xlink:href="#ArialMT-101"/>
      <use x="177.929688" xlink:href="#ArialMT-99"/>
      <use x="227.929688" xlink:href="#ArialMT-105"/>
      <use x="250.146484" xlink:href="#ArialMT-97"/>
      <use x="305.761719" xlink:href="#ArialMT-108"/>
      <use x="327.978516" xlink:href="#ArialMT-32"/>
      <use x="355.761719" xlink:href="#ArialMT-69"/>
      <use x="422.460938" xlink:href="#ArialMT-100"/>
      <use x="478.076172" xlink:href="#ArialMT-117"/>
      <use x="533.691406" xlink:href="#ArialMT-99"/>
      <use x="583.691406" xlink:href="#ArialMT-97"/>
      <use x="639.306641" xlink:href="#ArialMT-116"/>
      <use x="667.089844" xlink:href="#ArialMT-105"/>
      <use x="689.306641" xlink:href="#ArialMT-111"/>
      <use x="744.921875" xlink:href="#ArialMT-110"/>
     </g>
    </g>
   </g>
   <g id="matplotlib.axis_6">
    <g id="ytick_13">
     <g id="line2d_22">
      <path clip-path="url(#p4260e6082b)" d="M 309.684706 307.584 
L 414.72 307.584 
" style="fill:none;stroke:#ffffff;stroke-linecap:round;"/>
     </g>
    </g>
    <g id="ytick_14">
     <g id="line2d_23">
      <path clip-path="url(#p4260e6082b)" d="M 309.684706 254.3616 
L 414.72 254.3616 
" style="fill:none;stroke:#ffffff;stroke-linecap:round;"/>
     </g>
    </g>
    <g id="ytick_15">
     <g id="line2d_24">
      <path clip-path="url(#p4260e6082b)" d="M 309.684706 201.1392 
L 414.72 201.1392 
" style="fill:none;stroke:#ffffff;stroke-linecap:round;"/>
     </g>
    </g>
    <g id="ytick_16">
     <g id="line2d_25">
      <path clip-path="url(#p4260e6082b)" d="M 309.684706 147.9168 
L 414.72 147.9168 
" style="fill:none;stroke:#ffffff;stroke-linecap:round;"/>
     </g>
    </g>
    <g id="ytick_17">
     <g id="line2d_26">
      <path clip-path="url(#p4260e6082b)" d="M 309.684706 94.6944 
L 414.72 94.6944 
" style="fill:none;stroke:#ffffff;stroke-linecap:round;"/>
     </g>
    </g>
    <g id="ytick_18">
     <g id="line2d_27">
      <path clip-path="url(#p4260e6082b)" d="M 309.684706 41.472 
L 414.72 41.472 
" style="fill:none;stroke:#ffffff;stroke-linecap:round;"/>
     </g>
    </g>
   </g>
   <g id="PathCollection_3">
    <defs>
     <path d="M 0 3 
C 0.795609 3 1.55874 2.683901 2.12132 2.12132 
C 2.683901 1.55874 3 0.795609 3 0 
C 3 -0.795609 2.683901 -1.55874 2.12132 -2.12132 
C 1.55874 -2.683901 0.795609 -3 0 -3 
C -0.795609 -3 -1.55874 -2.683901 -2.12132 -2.12132 
C -2.683901 -1.55874 -3 -0.795609 -3 0 
C -3 0.795609 -2.683901 1.55874 -2.12132 2.12132 
C -1.55874 2.683901 -0.795609 3 0 3 
z
" id="m18275acbbe" style="stroke:#ee7624;stroke-opacity:0.8;"/>
    </defs>
    <g clip-path="url(#p4260e6082b)">
     <use style="fill:#ee7624;fill-opacity:0.8;stroke:#ee7624;stroke-opacity:0.8;" x="318.316288" xlink:href="#m18275acbbe" y="94.6944"/>
     <use style="fill:#ee7624;fill-opacity:0.8;stroke:#ee7624;stroke-opacity:0.8;" x="343.799642" xlink:href="#m18275acbbe" y="201.1392"/>
     <use style="fill:#ee7624;fill-opacity:0.8;stroke:#ee7624;stroke-opacity:0.8;" x="328.254698" xlink:href="#m18275acbbe" y="217.10592"/>
     <use style="fill:#ee7624;fill-opacity:0.8;stroke:#ee7624;stroke-opacity:0.8;" x="333.569476" xlink:href="#m18275acbbe" y="147.9168"/>
     <use style="fill:#ee7624;fill-opacity:0.8;stroke:#ee7624;stroke-opacity:0.8;" x="346.887055" xlink:href="#m18275acbbe" y="94.6944"/>
     <use style="fill:#ee7624;fill-opacity:0.8;stroke:#ee7624;stroke-opacity:0.8;" x="341.626549" xlink:href="#m18275acbbe" y="41.472"/>
     <use style="fill:#ee7624;fill-opacity:0.8;stroke:#ee7624;stroke-opacity:0.8;" x="362.127324" xlink:href="#m18275acbbe" y="201.1392"/>
     <use style="fill:#ee7624;fill-opacity:0.8;stroke:#ee7624;stroke-opacity:0.8;" x="343.743542" xlink:href="#m18275acbbe" y="174.528"/>
     <use style="fill:#ee7624;fill-opacity:0.8;stroke:#ee7624;stroke-opacity:0.8;" x="355.291355" xlink:href="#m18275acbbe" y="201.1392"/>
     <use style="fill:#ee7624;fill-opacity:0.8;stroke:#ee7624;stroke-opacity:0.8;" x="359.112821" xlink:href="#m18275acbbe" y="254.3616"/>
     <use style="fill:#ee7624;fill-opacity:0.8;stroke:#ee7624;stroke-opacity:0.8;" x="369.931817" xlink:href="#m18275acbbe" y="254.3616"/>
     <use style="fill:#ee7624;fill-opacity:0.8;stroke:#ee7624;stroke-opacity:0.8;" x="331.453221" xlink:href="#m18275acbbe" y="254.3616"/>
     <use style="fill:#ee7624;fill-opacity:0.8;stroke:#ee7624;stroke-opacity:0.8;" x="358.17455" xlink:href="#m18275acbbe" y="217.10592"/>
     <use style="fill:#ee7624;fill-opacity:0.8;stroke:#ee7624;stroke-opacity:0.8;" x="371.102665" xlink:href="#m18275acbbe" y="254.3616"/>
     <use style="fill:#ee7624;fill-opacity:0.8;stroke:#ee7624;stroke-opacity:0.8;" x="341.376085" xlink:href="#m18275acbbe" y="201.1392"/>
     <use style="fill:#ee7624;fill-opacity:0.8;stroke:#ee7624;stroke-opacity:0.8;" x="358.526572" xlink:href="#m18275acbbe" y="254.3616"/>
     <use style="fill:#ee7624;fill-opacity:0.8;stroke:#ee7624;stroke-opacity:0.8;" x="333.217485" xlink:href="#m18275acbbe" y="201.1392"/>
     <use style="fill:#ee7624;fill-opacity:0.8;stroke:#ee7624;stroke-opacity:0.8;" x="344.477149" xlink:href="#m18275acbbe" y="174.528"/>
     <use style="fill:#ee7624;fill-opacity:0.8;stroke:#ee7624;stroke-opacity:0.8;" x="342.10756" xlink:href="#m18275acbbe" y="201.1392"/>
     <use style="fill:#ee7624;fill-opacity:0.8;stroke:#ee7624;stroke-opacity:0.8;" x="324.496251" xlink:href="#m18275acbbe" y="147.9168"/>
     <use style="fill:#ee7624;fill-opacity:0.8;stroke:#ee7624;stroke-opacity:0.8;" x="346.724475" xlink:href="#m18275acbbe" y="254.3616"/>
     <use style="fill:#ee7624;fill-opacity:0.8;stroke:#ee7624;stroke-opacity:0.8;" x="335.020828" xlink:href="#m18275acbbe" y="94.6944"/>
     <use style="fill:#ee7624;fill-opacity:0.8;stroke:#ee7624;stroke-opacity:0.8;" x="354.398063" xlink:href="#m18275acbbe" y="147.9168"/>
     <use style="fill:#ee7624;fill-opacity:0.8;stroke:#ee7624;stroke-opacity:0.8;" x="314.301469" xlink:href="#m18275acbbe" y="68.0832"/>
     <use style="fill:#ee7624;fill-opacity:0.8;stroke:#ee7624;stroke-opacity:0.8;" x="336.703722" xlink:href="#m18275acbbe" y="94.6944"/>
     <use style="fill:#ee7624;fill-opacity:0.8;stroke:#ee7624;stroke-opacity:0.8;" x="329.315195" xlink:href="#m18275acbbe" y="121.3056"/>
     <use style="fill:#ee7624;fill-opacity:0.8;stroke:#ee7624;stroke-opacity:0.8;" x="342.905532" xlink:href="#m18275acbbe" y="254.3616"/>
     <use style="fill:#ee7624;fill-opacity:0.8;stroke:#ee7624;stroke-opacity:0.8;" x="347.458867" xlink:href="#m18275acbbe" y="147.9168"/>
     <use style="fill:#ee7624;fill-opacity:0.8;stroke:#ee7624;stroke-opacity:0.8;" x="338.987715" xlink:href="#m18275acbbe" y="41.472"/>
     <use style="fill:#ee7624;fill-opacity:0.8;stroke:#ee7624;stroke-opacity:0.8;" x="352.069255" xlink:href="#m18275acbbe" y="201.1392"/>
     <use style="fill:#ee7624;fill-opacity:0.8;stroke:#ee7624;stroke-opacity:0.8;" x="359.233873" xlink:href="#m18275acbbe" y="147.9168"/>
     <use style="fill:#ee7624;fill-opacity:0.8;stroke:#ee7624;stroke-opacity:0.8;" x="348.581693" xlink:href="#m18275acbbe" y="201.1392"/>
     <use style="fill:#ee7624;fill-opacity:0.8;stroke:#ee7624;stroke-opacity:0.8;" x="347.392998" xlink:href="#m18275acbbe" y="254.3616"/>
     <use style="fill:#ee7624;fill-opacity:0.8;stroke:#ee7624;stroke-opacity:0.8;" x="346.324424" xlink:href="#m18275acbbe" y="201.1392"/>
     <use style="fill:#ee7624;fill-opacity:0.8;stroke:#ee7624;stroke-opacity:0.8;" x="329.920261" xlink:href="#m18275acbbe" y="174.528"/>
     <use style="fill:#ee7624;fill-opacity:0.8;stroke:#ee7624;stroke-opacity:0.8;" x="358.190537" xlink:href="#m18275acbbe" y="147.9168"/>
     <use style="fill:#ee7624;fill-opacity:0.8;stroke:#ee7624;stroke-opacity:0.8;" x="362.508904" xlink:href="#m18275acbbe" y="201.1392"/>
     <use style="fill:#ee7624;fill-opacity:0.8;stroke:#ee7624;stroke-opacity:0.8;" x="369.406603" xlink:href="#m18275acbbe" y="147.9168"/>
     <use style="fill:#ee7624;fill-opacity:0.8;stroke:#ee7624;stroke-opacity:0.8;" x="338.756999" xlink:href="#m18275acbbe" y="201.1392"/>
     <use style="fill:#ee7624;fill-opacity:0.8;stroke:#ee7624;stroke-opacity:0.8;" x="336.314618" xlink:href="#m18275acbbe" y="201.1392"/>
     <use style="fill:#ee7624;fill-opacity:0.8;stroke:#ee7624;stroke-opacity:0.8;" x="330.225406" xlink:href="#m18275acbbe" y="254.3616"/>
     <use style="fill:#ee7624;fill-opacity:0.8;stroke:#ee7624;stroke-opacity:0.8;" x="332.307014" xlink:href="#m18275acbbe" y="41.472"/>
     <use style="fill:#ee7624;fill-opacity:0.8;stroke:#ee7624;stroke-opacity:0.8;" x="337.173505" xlink:href="#m18275acbbe" y="41.472"/>
     <use style="fill:#ee7624;fill-opacity:0.8;stroke:#ee7624;stroke-opacity:0.8;" x="314.539768" xlink:href="#m18275acbbe" y="94.6944"/>
     <use style="fill:#ee7624;fill-opacity:0.8;stroke:#ee7624;stroke-opacity:0.8;" x="315.535374" xlink:href="#m18275acbbe" y="121.3056"/>
     <use style="fill:#ee7624;fill-opacity:0.8;stroke:#ee7624;stroke-opacity:0.8;" x="330.670126" xlink:href="#m18275acbbe" y="201.1392"/>
     <use style="fill:#ee7624;fill-opacity:0.8;stroke:#ee7624;stroke-opacity:0.8;" x="324.35616" xlink:href="#m18275acbbe" y="201.1392"/>
     <use style="fill:#ee7624;fill-opacity:0.8;stroke:#ee7624;stroke-opacity:0.8;" x="309.684706" xlink:href="#m18275acbbe" y="94.6944"/>
     <use style="fill:#ee7624;fill-opacity:0.8;stroke:#ee7624;stroke-opacity:0.8;" x="338.946272" xlink:href="#m18275acbbe" y="147.9168"/>
     <use style="fill:#ee7624;fill-opacity:0.8;stroke:#ee7624;stroke-opacity:0.8;" x="315.86564" xlink:href="#m18275acbbe" y="94.6944"/>
     <use style="fill:#ee7624;fill-opacity:0.8;stroke:#ee7624;stroke-opacity:0.8;" x="342.914613" xlink:href="#m18275acbbe" y="94.6944"/>
     <use style="fill:#ee7624;fill-opacity:0.8;stroke:#ee7624;stroke-opacity:0.8;" x="334.970071" xlink:href="#m18275acbbe" y="41.472"/>
     <use style="fill:#ee7624;fill-opacity:0.8;stroke:#ee7624;stroke-opacity:0.8;" x="345.37917" xlink:href="#m18275acbbe" y="201.1392"/>
     <use style="fill:#ee7624;fill-opacity:0.8;stroke:#ee7624;stroke-opacity:0.8;" x="317.140644" xlink:href="#m18275acbbe" y="41.472"/>
     <use style="fill:#ee7624;fill-opacity:0.8;stroke:#ee7624;stroke-opacity:0.8;" x="315.116705" xlink:href="#m18275acbbe" y="94.6944"/>
     <use style="fill:#ee7624;fill-opacity:0.8;stroke:#ee7624;stroke-opacity:0.8;" x="341.045059" xlink:href="#m18275acbbe" y="94.6944"/>
     <use style="fill:#ee7624;fill-opacity:0.8;stroke:#ee7624;stroke-opacity:0.8;" x="329.973232" xlink:href="#m18275acbbe" y="41.472"/>
     <use style="fill:#ee7624;fill-opacity:0.8;stroke:#ee7624;stroke-opacity:0.8;" x="337.263112" xlink:href="#m18275acbbe" y="174.528"/>
     <use style="fill:#ee7624;fill-opacity:0.8;stroke:#ee7624;stroke-opacity:0.8;" x="344.264279" xlink:href="#m18275acbbe" y="41.472"/>
     <use style="fill:#ee7624;fill-opacity:0.8;stroke:#ee7624;stroke-opacity:0.8;" x="340.431161" xlink:href="#m18275acbbe" y="41.472"/>
     <use style="fill:#ee7624;fill-opacity:0.8;stroke:#ee7624;stroke-opacity:0.8;" x="343.578985" xlink:href="#m18275acbbe" y="201.1392"/>
     <use style="fill:#ee7624;fill-opacity:0.8;stroke:#ee7624;stroke-opacity:0.8;" x="360.656468" xlink:href="#m18275acbbe" y="201.1392"/>
     <use style="fill:#ee7624;fill-opacity:0.8;stroke:#ee7624;stroke-opacity:0.8;" x="338.80538" xlink:href="#m18275acbbe" y="41.472"/>
     <use style="fill:#ee7624;fill-opacity:0.8;stroke:#ee7624;stroke-opacity:0.8;" x="347.833624" xlink:href="#m18275acbbe" y="41.472"/>
     <use style="fill:#ee7624;fill-opacity:0.8;stroke:#ee7624;stroke-opacity:0.8;" x="342.628159" xlink:href="#m18275acbbe" y="201.1392"/>
     <use style="fill:#ee7624;fill-opacity:0.8;stroke:#ee7624;stroke-opacity:0.8;" x="333.514255" xlink:href="#m18275acbbe" y="201.1392"/>
     <use style="fill:#ee7624;fill-opacity:0.8;stroke:#ee7624;stroke-opacity:0.8;" x="371.069426" xlink:href="#m18275acbbe" y="41.472"/>
     <use style="fill:#ee7624;fill-opacity:0.8;stroke:#ee7624;stroke-opacity:0.8;" x="317.938191" xlink:href="#m18275acbbe" y="147.9168"/>
     <use style="fill:#ee7624;fill-opacity:0.8;stroke:#ee7624;stroke-opacity:0.8;" x="349.011722" xlink:href="#m18275acbbe" y="41.472"/>
     <use style="fill:#ee7624;fill-opacity:0.8;stroke:#ee7624;stroke-opacity:0.8;" x="347.439352" xlink:href="#m18275acbbe" y="41.472"/>
     <use style="fill:#ee7624;fill-opacity:0.8;stroke:#ee7624;stroke-opacity:0.8;" x="318.202991" xlink:href="#m18275acbbe" y="147.9168"/>
     <use style="fill:#ee7624;fill-opacity:0.8;stroke:#ee7624;stroke-opacity:0.8;" x="346.754149" xlink:href="#m18275acbbe" y="41.472"/>
     <use style="fill:#ee7624;fill-opacity:0.8;stroke:#ee7624;stroke-opacity:0.8;" x="354.46613" xlink:href="#m18275acbbe" y="254.3616"/>
     <use style="fill:#ee7624;fill-opacity:0.8;stroke:#ee7624;stroke-opacity:0.8;" x="360.11983" xlink:href="#m18275acbbe" y="147.9168"/>
     <use style="fill:#ee7624;fill-opacity:0.8;stroke:#ee7624;stroke-opacity:0.8;" x="327.435753" xlink:href="#m18275acbbe" y="41.472"/>
     <use style="fill:#ee7624;fill-opacity:0.8;stroke:#ee7624;stroke-opacity:0.8;" x="336.041018" xlink:href="#m18275acbbe" y="41.472"/>
     <use style="fill:#ee7624;fill-opacity:0.8;stroke:#ee7624;stroke-opacity:0.8;" x="354.106838" xlink:href="#m18275acbbe" y="94.6944"/>
     <use style="fill:#ee7624;fill-opacity:0.8;stroke:#ee7624;stroke-opacity:0.8;" x="327.770726" xlink:href="#m18275acbbe" y="41.472"/>
     <use style="fill:#ee7624;fill-opacity:0.8;stroke:#ee7624;stroke-opacity:0.8;" x="352.927377" xlink:href="#m18275acbbe" y="41.472"/>
     <use style="fill:#ee7624;fill-opacity:0.8;stroke:#ee7624;stroke-opacity:0.8;" x="349.405803" xlink:href="#m18275acbbe" y="201.1392"/>
     <use style="fill:#ee7624;fill-opacity:0.8;stroke:#ee7624;stroke-opacity:0.8;" x="357.932819" xlink:href="#m18275acbbe" y="41.472"/>
     <use style="fill:#ee7624;fill-opacity:0.8;stroke:#ee7624;stroke-opacity:0.8;" x="316.561092" xlink:href="#m18275acbbe" y="201.1392"/>
     <use style="fill:#ee7624;fill-opacity:0.8;stroke:#ee7624;stroke-opacity:0.8;" x="357.551778" xlink:href="#m18275acbbe" y="254.3616"/>
     <use style="fill:#ee7624;fill-opacity:0.8;stroke:#ee7624;stroke-opacity:0.8;" x="356.698112" xlink:href="#m18275acbbe" y="254.3616"/>
     <use style="fill:#ee7624;fill-opacity:0.8;stroke:#ee7624;stroke-opacity:0.8;" x="319.284166" xlink:href="#m18275acbbe" y="94.6944"/>
     <use style="fill:#ee7624;fill-opacity:0.8;stroke:#ee7624;stroke-opacity:0.8;" x="348.281734" xlink:href="#m18275acbbe" y="94.6944"/>
     <use style="fill:#ee7624;fill-opacity:0.8;stroke:#ee7624;stroke-opacity:0.8;" x="327.718637" xlink:href="#m18275acbbe" y="201.1392"/>
     <use style="fill:#ee7624;fill-opacity:0.8;stroke:#ee7624;stroke-opacity:0.8;" x="321.994819" xlink:href="#m18275acbbe" y="254.3616"/>
     <use style="fill:#ee7624;fill-opacity:0.8;stroke:#ee7624;stroke-opacity:0.8;" x="318.070795" xlink:href="#m18275acbbe" y="201.1392"/>
     <use style="fill:#ee7624;fill-opacity:0.8;stroke:#ee7624;stroke-opacity:0.8;" x="319.098841" xlink:href="#m18275acbbe" y="147.9168"/>
     <use style="fill:#ee7624;fill-opacity:0.8;stroke:#ee7624;stroke-opacity:0.8;" x="341.303156" xlink:href="#m18275acbbe" y="147.9168"/>
     <use style="fill:#ee7624;fill-opacity:0.8;stroke:#ee7624;stroke-opacity:0.8;" x="348.436627" xlink:href="#m18275acbbe" y="147.9168"/>
     <use style="fill:#ee7624;fill-opacity:0.8;stroke:#ee7624;stroke-opacity:0.8;" x="330.402569" xlink:href="#m18275acbbe" y="41.472"/>
     <use style="fill:#ee7624;fill-opacity:0.8;stroke:#ee7624;stroke-opacity:0.8;" x="348.396652" xlink:href="#m18275acbbe" y="254.3616"/>
     <use style="fill:#ee7624;fill-opacity:0.8;stroke:#ee7624;stroke-opacity:0.8;" x="414.72" xlink:href="#m18275acbbe" y="254.3616"/>
     <use style="fill:#ee7624;fill-opacity:0.8;stroke:#ee7624;stroke-opacity:0.8;" x="339.486325" xlink:href="#m18275acbbe" y="94.6944"/>
     <use style="fill:#ee7624;fill-opacity:0.8;stroke:#ee7624;stroke-opacity:0.8;" x="338.683341" xlink:href="#m18275acbbe" y="41.472"/>
     <use style="fill:#ee7624;fill-opacity:0.8;stroke:#ee7624;stroke-opacity:0.8;" x="339.707146" xlink:href="#m18275acbbe" y="201.1392"/>
     <use style="fill:#ee7624;fill-opacity:0.8;stroke:#ee7624;stroke-opacity:0.8;" x="332.570302" xlink:href="#m18275acbbe" y="94.6944"/>
     <use style="fill:#ee7624;fill-opacity:0.8;stroke:#ee7624;stroke-opacity:0.8;" x="321.496582" xlink:href="#m18275acbbe" y="201.1392"/>
     <use style="fill:#ee7624;fill-opacity:0.8;stroke:#ee7624;stroke-opacity:0.8;" x="347.504679" xlink:href="#m18275acbbe" y="147.9168"/>
     <use style="fill:#ee7624;fill-opacity:0.8;stroke:#ee7624;stroke-opacity:0.8;" x="329.634864" xlink:href="#m18275acbbe" y="41.472"/>
     <use style="fill:#ee7624;fill-opacity:0.8;stroke:#ee7624;stroke-opacity:0.8;" x="313.723593" xlink:href="#m18275acbbe" y="41.472"/>
     <use style="fill:#ee7624;fill-opacity:0.8;stroke:#ee7624;stroke-opacity:0.8;" x="329.221785" xlink:href="#m18275acbbe" y="147.9168"/>
    </g>
   </g>
   <g id="line2d_28">
    <path clip-path="url(#p4260e6082b)" d="M 309.684706 104.048073 
L 310.745668 105.460634 
L 311.806631 106.873196 
L 312.867594 108.285757 
L 313.928556 109.698319 
L 314.989519 111.110881 
L 316.050481 112.523442 
L 317.111444 113.936004 
L 318.172406 115.348565 
L 319.233369 116.761127 
L 320.294332 118.173689 
L 321.355294 119.58625 
L 322.416257 120.998812 
L 323.477219 122.411373 
L 324.538182 123.823935 
L 325.599144 125.236497 
L 326.660107 126.649058 
L 327.72107 128.06162 
L 328.782032 129.474181 
L 329.842995 130.886743 
L 330.903957 132.299305 
L 331.96492 133.711866 
L 333.025882 135.124428 
L 334.086845 136.53699 
L 335.147807 137.949551 
L 336.20877 139.362113 
L 337.269733 140.774674 
L 338.330695 142.187236 
L 339.391658 143.599798 
L 340.45262 145.012359 
L 341.513583 146.424921 
L 342.574545 147.837482 
L 343.635508 149.250044 
L 344.696471 150.662606 
L 345.757433 152.075167 
L 346.818396 153.487729 
L 347.879358 154.90029 
L 348.940321 156.312852 
L 350.001283 157.725414 
L 351.062246 159.137975 
L 352.123209 160.550537 
L 353.184171 161.963098 
L 354.245134 163.37566 
L 355.306096 164.788222 
L 356.367059 166.200783 
L 357.428021 167.613345 
L 358.488984 169.025906 
L 359.549947 170.438468 
L 360.610909 171.85103 
L 361.671872 173.263591 
L 362.732834 174.676153 
L 363.793797 176.088714 
L 364.854759 177.501276 
L 365.915722 178.913838 
L 366.976684 180.326399 
L 368.037647 181.738961 
L 369.09861 183.151522 
L 370.159572 184.564084 
L 371.220535 185.976646 
L 372.281497 187.389207 
L 373.34246 188.801769 
L 374.403422 190.214331 
L 375.464385 191.626892 
L 376.525348 193.039454 
L 377.58631 194.452015 
L 378.647273 195.864577 
L 379.708235 197.277139 
L 380.769198 198.6897 
L 381.83016 200.102262 
L 382.891123 201.514823 
L 383.952086 202.927385 
L 385.013048 204.339947 
L 386.074011 205.752508 
L 387.134973 207.16507 
L 388.195936 208.577631 
L 389.256898 209.990193 
L 390.317861 211.402755 
L 391.378824 212.815316 
L 392.439786 214.227878 
L 393.500749 215.640439 
L 394.561711 217.053001 
L 395.622674 218.465563 
L 396.683636 219.878124 
L 397.744599 221.290686 
L 398.805561 222.703247 
L 399.866524 224.115809 
L 400.927487 225.528371 
L 401.988449 226.940932 
L 403.049412 228.353494 
L 404.110374 229.766055 
L 405.171337 231.178617 
L 406.232299 232.591179 
L 407.293262 234.00374 
L 408.354225 235.416302 
L 409.415187 236.828863 
L 410.47615 238.241425 
L 411.537112 239.653987 
L 412.598075 241.066548 
L 413.659037 242.47911 
L 414.72 243.891672 
" style="fill:none;stroke:#ee7624;stroke-linecap:round;stroke-width:2.25;"/>
   </g>
   <g id="patch_13">
    <path d="M 309.684706 307.584 
L 309.684706 41.472 
" style="fill:none;stroke:#ffffff;stroke-linecap:square;stroke-linejoin:miter;stroke-width:1.25;"/>
   </g>
   <g id="patch_14">
    <path d="M 414.72 307.584 
L 414.72 41.472 
" style="fill:none;stroke:#ffffff;stroke-linecap:square;stroke-linejoin:miter;stroke-width:1.25;"/>
   </g>
   <g id="patch_15">
    <path d="M 309.684706 307.584 
L 414.72 307.584 
" style="fill:none;stroke:#ffffff;stroke-linecap:square;stroke-linejoin:miter;stroke-width:1.25;"/>
   </g>
   <g id="patch_16">
    <path d="M 309.684706 41.472 
L 414.72 41.472 
" style="fill:none;stroke:#ffffff;stroke-linecap:square;stroke-linejoin:miter;stroke-width:1.25;"/>
   </g>
  </g>
 </g>
 <defs>
  <clipPath id="p655ce9483c">
   <rect height="266.112" width="105.035294" x="57.6" y="41.472"/>
  </clipPath>
  <clipPath id="pd35f1e8b24">
   <rect height="266.112" width="105.035294" x="183.642353" y="41.472"/>
  </clipPath>
  <clipPath id="p4260e6082b">
   <rect height="266.112" width="105.035294" x="309.684706" y="41.472"/>
  </clipPath>
 </defs>
</svg>
